<svg id="Capa_1" data-name="Capa 1" xmlns="http://www.w3.org/2000/svg" xmlns:xlink="http://www.w3.org/1999/xlink" viewBox="0 0 315 124"><defs><linearGradient id="Degradado_sin_nombre_12" x1="53.49" y1="76.61" x2="53.8" y2="114.48" gradientUnits="userSpaceOnUse"><stop offset="0" stop-color="#feaa00"/><stop offset="0.25" stop-color="#ff840d"/><stop offset="0.59" stop-color="#ff7314"/><stop offset="1" stop-color="#fea900"/></linearGradient><linearGradient id="Degradado_sin_nombre_12-2" x1="41.67" y1="72.3" x2="18.04" y2="97.15" xlink:href="#Degradado_sin_nombre_12"/><linearGradient id="Degradado_sin_nombre_12-3" x1="41.92" y1="49.46" x2="16.77" y2="24.61" xlink:href="#Degradado_sin_nombre_12"/><linearGradient id="Degradado_sin_nombre_12-4" x1="64.88" y1="49.44" x2="90.03" y2="24.9" xlink:href="#Degradado_sin_nombre_12"/><linearGradient id="Degradado_sin_nombre_12-5" x1="53.54" y1="45.7" x2="53.54" y2="11.02" xlink:href="#Degradado_sin_nombre_12"/><linearGradient id="Degradado_sin_nombre_12-6" x1="37.49" y1="60.89" x2="1.44" y2="60.89" xlink:href="#Degradado_sin_nombre_12"/><linearGradient id="Degradado_sin_nombre_12-7" x1="70.17" y1="60.65" x2="106.66" y2="60.65" xlink:href="#Degradado_sin_nombre_12"/><linearGradient id="Degradado_sin_nombre_12-8" x1="64.99" y1="72.4" x2="91.05" y2="96.64" xlink:href="#Degradado_sin_nombre_12"/></defs><path d="M223,84.37c0-6,0-12,0-17.94,0-1.39.37-1.93,1.86-1.86,3.24.15,3-.5,3,3.06,0,2.92-.1,5.83-.11,8.74,0,.55-.35,1.33.33,1.61s.92-.46,1.32-.8c3.41-2.93,10.5-3.2,14.1-.54,2.6,1.93,3.38,4.72,3.44,7.7.13,6.17.06,12.34.1,18.52,0,.87-.36,1.23-1.2,1.34-3.25.39-3.57.12-3.57-3.12,0-5.09,0-10.18,0-15.27,0-4.64-1.94-6.71-6.43-6.93a7.25,7.25,0,0,0-7.85,6.63c-.5,5.58-.19,11.16-.22,16.74,0,1.39-.33,1.94-1.82,1.85-3-.19-2.88.7-2.89-3C223,95.53,223,90,223,84.37Z" style="fill:#666"/><path d="M157.34,74.7a18.49,18.49,0,0,1,6.28,1.11,7.84,7.84,0,0,1,4.93,5.87c.33,1.47-.1,2-1.58,2.14a2.94,2.94,0,0,1-3.21-1.66c-1.45-3.4-7.46-4.06-10.3-2.62a3.53,3.53,0,0,0-2.11,3c-.09,1.38.83,2.16,1.9,2.76a20.27,20.27,0,0,0,5.63,1.82,30.94,30.94,0,0,1,6.78,2.09A7.43,7.43,0,0,1,167,102.08c-3.9,3-8.4,3.17-13,2.3a9.93,9.93,0,0,1-7.13-4.59,6.13,6.13,0,0,1-1.09-3.17,1.49,1.49,0,0,1,.52-1.32c1-.73,3.82-.19,4.2,1,1.07,3.23,3.67,4,6.57,4.44a10,10,0,0,0,5.11-.65c1.65-.66,2.83-1.81,2.84-3.62a4,4,0,0,0-2.69-3.61,30.43,30.43,0,0,0-6-1.55,29.94,29.94,0,0,1-5.41-1.58c-2.84-1.23-4.49-3.25-4.54-6.47a7.29,7.29,0,0,1,4.37-7.13A14.77,14.77,0,0,1,157.34,74.7Z" style="fill:#666"/><path d="M295.82,74.69a17.84,17.84,0,0,1,6.79,1.2,7.62,7.62,0,0,1,4.44,4.88c.29.93.77,1.94-.14,2.74s-2.9.35-3.74-.49a3.91,3.91,0,0,1-.79-1.07c-1.53-3.35-7.76-3.89-10.5-2.22-2.36,1.43-2.39,4-.05,5.47,2.15,1.33,4.65,1.62,7,2.22a28.43,28.43,0,0,1,5.5,1.76,7.44,7.44,0,0,1,1.72,12.69A13.35,13.35,0,0,1,297,104.8c-3.83,0-7.54-.62-10.31-3.67A7.4,7.4,0,0,1,284.58,97c-.14-1.37.36-2,1.74-2s2.76.32,3.36,2c.92,2.6,3.27,3.2,5.68,3.6a9.6,9.6,0,0,0,6.34-1,3.51,3.51,0,0,0,.58-6.11,9.81,9.81,0,0,0-4.39-1.69A46.57,46.57,0,0,1,290,89.82c-3.47-1.43-5-3.6-4.93-7a7.67,7.67,0,0,1,5.33-7.14,13.6,13.6,0,0,1,2.42-.68A11.21,11.21,0,0,1,295.82,74.69Z" style="fill:#666"/><path d="M171.65,74.51c1.51-.42,2.25.4,2.85,2,2.31,6.29,4.79,12.52,7.2,18.77.21.53.27,1.32,1,1.29s.67-.78.85-1.26c2.47-6.39,5-12.77,7.35-19.19a2.15,2.15,0,0,1,2.45-1.68c3.61.05,3.25.13,2.06,3.12-3.75,9.48-7.74,18.87-11.28,28.44a36.7,36.7,0,0,1-2.69,5.75,7.48,7.48,0,0,1-7.37,3.78c-2-.1-2.9-1.51-2.36-3.4a1.27,1.27,0,0,1,1.61-.94c2.63.37,4.08-.95,5.31-3.11a8.27,8.27,0,0,0,.37-7.87c-3.21-7.69-6.26-15.45-9.36-23.18C168.6,74.51,168.61,74.51,171.65,74.51Z" style="fill:#666"/><path d="M262.15,89.9a12.72,12.72,0,0,0,1.11,6c2.35,5.1,9.25,6.4,13.06,2.49a8.65,8.65,0,0,0,1.57-2.83A3.18,3.18,0,0,1,282,93.7c1.25.4,1.09,1.42.81,2.33-1.45,4.6-4.29,7.74-9.28,8.48s-9.6.1-13-3.91c-3.14-3.67-3.68-8.2-3.32-12.84a19.49,19.49,0,0,1,.76-3.61c2.9-10.61,16.48-11.29,21.67-6.55a10.14,10.14,0,0,1,3.05,4.81c.44,1.59-.06,2.24-1.67,2.34-2.07.14-2.68-.23-3.53-2.13-1.38-3.05-5.41-4.49-9.22-3.28-3.64,1.15-5.76,4.25-6.09,8.93C262.12,88.81,262.15,89.36,262.15,89.9Z" style="fill:#666"/><path d="M207.84,104.76c-8-.52-12.43-5.17-12.91-13.56-.28-4.74.65-9.19,4.13-12.7,4-4,12-4.89,16.89-2a9.77,9.77,0,0,1,4.27,5.14c.36,1,.95,2.13-.4,2.86a3.47,3.47,0,0,1-4.13-1c-2.4-4.1-4.61-5.23-8.76-4.46-3.6.67-6.09,3.45-6.74,7.52a16.17,16.17,0,0,0,.67,8.88,8.17,8.17,0,0,0,11.2,4.39,6.62,6.62,0,0,0,3.53-4c.7-1.92,1.36-2.31,3.31-2.3,1.62,0,2.26.73,1.77,2.24-1.49,4.57-3.83,7.89-9.88,8.74A10,10,0,0,1,207.84,104.76Z" style="fill:#666"/><path d="M254.69,90c0,4.14-.05,8.29,0,12.43,0,1.25-.28,1.76-1.64,1.71-3.57-.13-3.08.44-3.09-3,0-7.89,0-15.78,0-23.66,0-1.45.36-2,1.89-2,3.42,0,2.84.11,2.85,2.76C254.7,82.08,254.69,86,254.69,90Z" style="fill:#666"/><path d="M254.69,67.44c0,2.7-1.24,3.56-4,2.76a.91.91,0,0,1-.74-1q0-1.92,0-3.84a.77.77,0,0,1,.65-.87,11.74,11.74,0,0,1,3.4,0c.52.08.67.5.66,1S254.69,66.8,254.69,67.44Z" style="fill:#676767"/><path d="M143.48,72.88a8.24,8.24,0,0,0-2.43-4.48,13,13,0,0,0-8.78-3.8c-5.29-.46-10.59.16-15.89-.07-1.22,0-1.62.33-1.6,1.58.06,6,0,12,0,18.07,0,5.73,0,11.46,0,17.19,0,3.12-.43,2.58,2.79,2.74,1.56.07,1.94-.52,1.91-2-.08-3.85,0-7.71,0-11.56,0-2.09.56-2.6,2.67-2.61,3.17,0,6.35.12,9.52,0,4.26-.21,8.08-1.49,10.54-5.32C144.19,79.57,144,76.22,143.48,72.88Zm-5.16,6.79a6.19,6.19,0,0,1-4,3.24,24.6,24.6,0,0,1-7,.89c-2,.09-4.06,0-6.09,0-1.33.06-1.74-.46-1.69-1.73.08-2,0-4,0-5.92s0-4.15,0-6.22c0-.72.13-1.29,1-1.26,4.25.11,8.53-.38,12.73.63A7.23,7.23,0,0,1,138.32,79.67Z" style="fill:#666"/><path d="M117.62,38.12c.09,4.88.87,9.21,4.07,12.65s7.52,4.48,12.06,3.36c4.3-1.06,6.88-4,7.77-8.39.45-2.23,2.27-3.18,4.44-2.37a1.45,1.45,0,0,1,1,1.57,10.36,10.36,0,0,1-.74,3.21c-2.69,7.23-7.77,10.59-16,10.57-8.93,0-15-4.9-17.05-13.6a27.35,27.35,0,0,1-.19-12c3.11-14.55,17.25-17.87,27.73-11.92,2.84,1.61,4.4,4.39,5.5,7.37.58,1.58,0,2.23-1.65,2.3-2.39.1-2.92-.22-3.92-2.44a9.39,9.39,0,0,0-7.85-5.64c-7.66-.9-13.42,3.48-14.83,11.12A33.73,33.73,0,0,0,117.62,38.12Z" style="fill:#666"/><path d="M254.07,44c0-4.13,0-8.26,0-12.4,0-1.16.4-1.57,1.5-1.48a8.06,8.06,0,0,0,1.3,0c1.26-.12,1.94.33,1.79,1.69,0,.41-.12,1,.36,1.16s.84-.31,1.18-.65c3.41-3.41,10.38-3.76,14.11-.71a8.42,8.42,0,0,1,2.93,6.66c.12,6.24.06,12.49.07,18.74,0,.19,0,.47-.07.56-1.13.94-2.47.33-3.71.43-.83.06-.8-.67-.8-1.25q0-5.62,0-11.25c0-2,0-3.94,0-5.91,0-4.33-2.75-6.4-7.33-6-4.35.42-6.37,2.76-6.61,7.12-.28,5.14-.11,10.28-.09,15.42,0,1.43-.38,2-1.88,1.89-3.12-.14-2.69.38-2.7-2.68C254.05,51.58,254.07,47.78,254.07,44Z" style="fill:#666"/><path d="M196.24,46.25c0-3.22,0-6.44,0-9.66,0-2-.51-2.44-2.44-2.54-.72,0-1.73.44-2.12-.39a5.5,5.5,0,0,1-.08-3c.06-.51.55-.61,1-.63s1.06,0,1.59,0c1.7,0,2-.34,2.05-2,0-.68,0-1.35,0-2,.05-4.18,2.49-6.7,6.7-6.92.53,0,1.06,0,1.6,0,2.12,0,2.84,1,2.39,3.07a1.16,1.16,0,0,1-1.24,1c-.58,0-1.16,0-1.74,0A2.94,2.94,0,0,0,201,25.58c0,.19-.09.37-.12.56-.52,3.36-.07,3.87,3.26,3.9.68,0,1.63-.33,1.91.57a5.39,5.39,0,0,1-.07,3.13c-.16.5-.75.32-1.16.33-4,.11-4,.11-4,4.11,0,6.11,0,12.21,0,18.31,0,1.23-.41,1.58-1.59,1.55-3.41-.09-3,.41-3-3C196.23,52.12,196.24,49.19,196.24,46.25Z" style="fill:#666"/><path d="M235.63,44.08c0-4.14,0-8.27,0-12.4,0-1.2.41-1.7,1.6-1.58a3.09,3.09,0,0,0,.43,0c3.08,0,2.53,0,2.58,2.55,0,.5-.24,1.2.33,1.45s1-.44,1.36-.83a11.69,11.69,0,0,1,7-3.49,1.25,1.25,0,0,1,1.55.94c.83,2.24.13,3.47-2.19,3.87-4.6.77-7.1,3.48-7.71,8.38-.56,4.4-.27,8.83-.25,13.24,0,1.51-.47,1.89-1.9,1.83-2.85-.12-2.74.37-2.74-2.73C235.63,51.57,235.63,47.83,235.63,44.08Z" style="fill:#666"/><path d="M176.84,38.79c0-5.81,0-11.62,0-17.43,0-1.33.3-1.89,1.76-1.84,3.3.13,2.85-.31,2.85,2.85q0,16.86,0,33.71c0,1.94,0,2-1.86,1.94-3,0-2.72.38-2.73-2.66C176.83,49.83,176.84,44.31,176.84,38.79Z" style="fill:#666"/><path d="M285.15,44.27c0,4,0,8.07,0,12.11,0,1.22-.26,1.73-1.59,1.67-3.22-.16-3,.62-3-3q0-11.52,0-23.06c0-1.79.05-1.84,1.88-1.85h.72c1.93,0,1.95,0,1.95,1.9Q285.15,38.15,285.15,44.27Z" style="fill:#666"/><path d="M189,44.27c0,4,0,8.08,0,12.11,0,1.21-.25,1.73-1.59,1.67-3.23-.17-3,.61-3-3q0-11.46,0-22.92c0-.66-.33-1.65.6-1.86a5.67,5.67,0,0,1,3.68.14c.47.22.26.88.26,1.34C189,35.91,189,40.09,189,44.27Z" style="fill:#666"/><path d="M285.14,22.31c0,2.73-1,3.47-3.77,2.76A1,1,0,0,1,280.6,24c0-.57,0-1.15,0-1.72,0-2.85.86-3.5,3.74-2.84a.87.87,0,0,1,.81,1C285.13,21.06,285.14,21.68,285.14,22.31Z" style="fill:#666"/><path d="M189,22.3c0,3.13.55,2.75-3.32,2.79-.85,0-1.25-.35-1.23-1.19V22.32c0-2.85.85-3.5,3.74-2.86.56.12.83.39.81,1S189,21.67,189,22.3Z" style="fill:#666"/><path d="M313.33,54.76a2.29,2.29,0,0,1-1.64-2.56c0-2.5,0-5,0-7.5h0c0-2.59.09-5.19,0-7.78-.16-3.76-2-5.94-5.6-6.93a18.65,18.65,0,0,0-8-.23c-4.1.69-7.15,2.72-8.44,6.88-.19.64-.29,1.23.28,1.73a2.82,2.82,0,0,0,4.25-.92c1.71-3.87,7.92-5.38,11.3-2.72a3.77,3.77,0,0,1,1.62,3.77,3.33,3.33,0,0,1-2.8,2.59,38.85,38.85,0,0,1-5.24,1,17.14,17.14,0,0,0-7.52,2.29c-2.84,1.82-3.65,4.48-3.14,7.62a7,7,0,0,0,5.46,6.2,13.7,13.7,0,0,0,11.56-2.08c1.16-.81,1.84-.6,2.51.62a4.19,4.19,0,0,0,5.52,1.55,1.88,1.88,0,0,0,1.17-1.83A1.68,1.68,0,0,0,313.33,54.76Zm-12.7-.26a7.68,7.68,0,0,1-4.67-.24c-1.54-.69-2.72-1.71-2.85-3.49a4.19,4.19,0,0,1,2.31-4.15,13.37,13.37,0,0,1,4.09-1.34A47.43,47.43,0,0,0,305,44.12c1.56-.49,1.86-.28,2,1.32.06.53.06,1.05.09,1.58C307.12,51.13,304.86,53.73,300.63,54.5Z" style="fill:#666"/><path d="M173.13,54.77a2.2,2.2,0,0,1-1.6-2.43c0-2.5,0-5,0-7.49s0-5,0-7.5c-.07-4.09-1.94-6.46-5.92-7.42a18,18,0,0,0-10.66.65,9,9,0,0,0-5.59,6.19,1.36,1.36,0,0,0,.56,1.75,2.73,2.73,0,0,0,4.13-1.34A4.23,4.23,0,0,1,156,34.61a9.63,9.63,0,0,1,8.5-.33A4.24,4.24,0,0,1,167,38.07c-.11,1.46-1.15,2.6-3,3.07a38.28,38.28,0,0,1-5.1,1,17,17,0,0,0-7.28,2.14c-2.88,1.76-4,4.31-3.38,7.92a7.13,7.13,0,0,0,5.59,6.08,13.88,13.88,0,0,0,11.56-2.19c1-.73,1.67-.56,2.28.57a4.26,4.26,0,0,0,5.48,1.76,1.92,1.92,0,0,0,1.27-1.91A1.63,1.63,0,0,0,173.13,54.77Zm-12.64-.27a7.53,7.53,0,0,1-5.2-.46,4,4,0,0,1-2.41-3.5,4.19,4.19,0,0,1,2.17-3.82A15.9,15.9,0,0,1,160.68,45a33.2,33.2,0,0,0,4.07-.9c1.64-.48,1.9-.31,2.11,1.41.07.52.07,1.05.09,1.26C167,51.07,164.66,53.72,160.49,54.5Z" style="fill:#666"/><path d="M232.36,40.2c-2.36-11.62-14-13.1-20.29-9.14-4.77,3-6.33,7.62-6.47,12.93a20.5,20.5,0,0,0,.49,4.28c1.36,5.26,4.42,9,9.9,10.1,5.31,1.09,10.13,0,13.62-4.49C232.78,49.83,233.35,45.08,232.36,40.2ZM226,50.49a7.92,7.92,0,0,1-13.66.08,12.31,12.31,0,0,1-1.8-6.57A12.71,12.71,0,0,1,212,38a7.86,7.86,0,0,1,7.18-4.52,7.58,7.58,0,0,1,7.14,4.33A12.37,12.37,0,0,1,226,50.49Z" style="fill:#666"/><path d="M53,113.57c-.54-6.66-3-12.81-5.12-19-1.25-3.63-2.16-7.28-1.26-11.16s3.56-6.24,7.31-6.15c3.17.09,5.63,2.19,6.52,5.7a17.07,17.07,0,0,1-.54,9.75c-1.68,5.11-3.75,10.12-4.86,15.41-.37,1.8-1,3.6-.55,5.49Z" style="fill:url(#Degradado_sin_nombre_12)"/><path d="M37.23,70.49a6.64,6.64,0,0,1,6.15,9.1,13.77,13.77,0,0,1-6.72,7.48c-2.61,1.46-5.31,2.76-8,4.05a58,58,0,0,0-11.37,6.82c-.33.27-.61.9-1.23.36s-.29-.84.07-1.26c4.44-5.26,7-11.62,10-17.66a18.6,18.6,0,0,1,5.72-7A8.72,8.72,0,0,1,37.23,70.49Z" style="fill:url(#Degradado_sin_nombre_12-2)"/><path d="M43.8,44.13c.05,5.3-4.56,8.42-9.31,6.71a13.61,13.61,0,0,1-7.23-6.49c-2-3.57-3.73-7.3-5.58-11a46.85,46.85,0,0,0-5.42-8.49c-.28-.34-.84-.68-.34-1.26s.87-.21,1.26.12C22,27.79,27.79,30.28,33.4,33c3.16,1.53,6.12,3.25,8.28,6.15A9.89,9.89,0,0,1,43.8,44.13Z" style="fill:url(#Degradado_sin_nombre_12-3)"/><path d="M70.06,51.14a6.63,6.63,0,0,1-6.33-9,13.67,13.67,0,0,1,6.8-7.64c3.43-1.9,7-3.51,10.5-5.28a49,49,0,0,0,8.69-5.46c.41-.33.78-1.15,1.52-.39s-.09,1-.38,1.36c-4.12,5-6.59,11-9.43,16.69a19.72,19.72,0,0,1-6.17,7.84A8.74,8.74,0,0,1,70.06,51.14Z" style="fill:url(#Degradado_sin_nombre_12-4)"/><path d="M60.86,35.24a11.19,11.19,0,0,1-1.11,5.61,6.8,6.8,0,0,1-12.41-.14,14.1,14.1,0,0,1-.48-9.87c1.45-5.47,3.9-10.64,5.08-16.19.38-1.77.64-3.55.94-5.33.07-.43,0-.89.68-.88s.72.39.75.85c.58,7.05,3.51,13.45,5.59,20.08A16.74,16.74,0,0,1,60.86,35.24Z" style="fill:url(#Degradado_sin_nombre_12-5)"/><path d="M27.52,68.24c-3.34,0-6.39-1.18-9.46-2.24-5.49-1.88-10.92-3.94-16.78-4.45-.48,0-.86-.13-.85-.73s.4-.67.87-.71c6.94-.55,13.27-3.34,19.79-5.44A17.84,17.84,0,0,1,31,54c3.81.94,6,3.51,6,6.87s-2.15,5.91-6,6.87C29.89,68,28.7,68.07,27.52,68.24Z" style="fill:url(#Degradado_sin_nombre_12-6)"/><path d="M79.77,68A11.68,11.68,0,0,1,74,66.78a6.48,6.48,0,0,1-3.83-5.94,6.37,6.37,0,0,1,3.71-6.19,13.16,13.16,0,0,1,8.76-1c4,.79,7.81,2.39,11.68,3.66A55.21,55.21,0,0,0,105.6,60c.46.05,1.05-.07,1.06.7s-.55.71-1,.76c-5.79.5-11.15,2.56-16.57,4.42C86,66.9,82.94,68.06,79.77,68Z" style="fill:url(#Degradado_sin_nombre_12-7)"/><path d="M63.28,76.22c-.06-4.09,5-7.29,9.75-5.29a15.33,15.33,0,0,1,7.54,7.48c2,3.79,3.82,7.64,5.78,11.44a39.56,39.56,0,0,0,4.64,7c.29.36.8.68.22,1.23s-.88.1-1.26-.21c-4.38-3.59-9.47-5.95-14.53-8.38-3.2-1.53-6.45-3-8.93-5.68A11.13,11.13,0,0,1,63.28,76.22Z" style="fill:url(#Degradado_sin_nombre_12-8)"/></svg>