<svg id="Capa_1" data-name="Capa 1" xmlns="http://www.w3.org/2000/svg" viewBox="0 0 315 126.11"><path d="M212.21,63.15c-2,6.25-3.94,11.91-5.68,17.61-.61,2-1.48,3-3.78,3s-3.42-.85-4.1-3c-2.19-7.14-4.59-14.23-6.89-21.34-.4-1.25-1.39-2.88.79-3.35,1.77-.38,3.64-.46,4.34,2,1.72,6.06,3.57,12.08,5.37,18.12.11.37.23.74.6,1.93,2.12-6.68,4-12.62,5.87-18.56.57-1.82.82-3.73,3.59-3.66s2.91,2.05,3.47,3.83c1.85,5.9,3.68,11.81,5.71,18.35l.93-3c1.7-5.63,3.47-11.23,5.08-16.88.74-2.61,2.66-2.66,4.51-2,.51.18.81,2.33.5,3.36-2.19,7.15-4.65,14.22-6.84,21.37C225,83,224,83.74,221.8,83.77s-3.24-.89-3.86-2.92C216.18,75.14,214.27,69.48,212.21,63.15Z" style="fill:#731445"/><path d="M305.41,59.36c0-4.1,0-7.61,0-11.11,0-1.87.06-3.36,2.61-3.39s2.7,1.38,2.69,3.31c0,10.57,0,21.14,0,31.71,0,1.7.62,3.78-2.39,3.86-2.81.08-2.6-1.8-2.51-3.4-2.34,1.32-4.45,3.07-6.86,3.73a11.13,11.13,0,0,1-13.07-6.26,18.56,18.56,0,0,1-.65-14.33C287.56,56.21,297.67,51.64,305.41,59.36Zm.32,11.06a39.27,39.27,0,0,0-.6-4.08c-1.06-4-4.22-6.54-7.8-6.4A7.76,7.76,0,0,0,290,66.81a21.15,21.15,0,0,0,.66,8.15,6.67,6.67,0,0,0,6.54,4.83,7,7,0,0,0,7.19-4.39A30.37,30.37,0,0,0,305.73,70.42Z" style="fill:#731445"/><path d="M7,69.36c0,4-.07,7.6,0,11.2,0,2.06-.42,3.25-2.83,3.19-2.16-.06-2.73-1.07-2.72-3q.06-16.38,0-32.75c0-2.16.74-3.15,3-3.1,4.08.09,8.17-.09,12.24.09,6.89.28,11.45,5.26,11.39,12.2S23.41,69.06,16.6,69.34C13.52,69.47,10.43,69.36,7,69.36Zm.19-19.68V64.49c3.27,0,6.38.25,9.43-.06,3.84-.39,6-3.35,6-7.46s-2.26-6.88-6.21-7.24C13.43,49.46,10.44,49.68,7.21,49.68Z" style="fill:#f79421"/><path d="M85.6,61.29c2.83-4,6-5.93,10.18-6,5.92-.14,9.41,2.8,9.71,8.72.28,5.76.06,11.55.13,17.33,0,1.87-.92,2.36-2.59,2.4-1.88,0-2.76-.6-2.72-2.59q.1-6.9,0-13.8c0-2.67,0-5.5-3.11-6.81A7.81,7.81,0,0,0,88.5,63a17.17,17.17,0,0,0-2.77,7.27,65.51,65.51,0,0,0-.1,10.58c.06,2.07-.74,2.87-2.82,2.86s-2.48-1.11-2.48-2.86q0-16.51,0-33c0-2,.54-3,2.72-3s2.6,1.28,2.57,3.12C85.56,52.16,85.6,56.32,85.6,61.29Z" style="fill:#f79421"/><path d="M152.84,84.38c-8.37-.14-14.8-6.53-14.75-14.65,0-8.39,6.83-14.69,15.56-14.46,8.41.22,14.66,6.57,14.55,14.79S161.42,84.53,152.84,84.38Zm.24-24.52a10,10,0,1,0,9.74,9.81A9.65,9.65,0,0,0,153.08,59.86Z" style="fill:#731445"/><path d="M254,66.45c-.09-5.44-3-7.62-8.31-6.47-1.34.29-2.57,1.23-3.9,1.37a3.53,3.53,0,0,1-2.74-1.18,2.61,2.61,0,0,1,.58-2.54c4.72-2.59,9.73-3.46,14.77-1.08,4.4,2.09,5.12,6.21,5.09,10.59s0,8.75,0,13.13c0,1.79.14,3.45-2.5,3.47s-2.59-1.62-2.51-3.43a3.22,3.22,0,0,0-.28-.84c-2.55,3.25-5.6,5.3-9.86,4.88s-7.56-3-8.24-6.83,1.24-7.36,5.46-9.07a29,29,0,0,1,6.2-1.53C249.78,66.61,251.82,66.6,254,66.45Zm.05,3.28a76.74,76.74,0,0,0-9,1.5c-3,.88-4.15,3.15-3.46,5.62s3.32,3.8,6.22,3.24C251.71,79.35,254.24,75.51,254.09,69.73Z" style="fill:#731445"/><path d="M49.14,79.09c-3.48,4.82-7.6,6.36-12.68,4.65A7.54,7.54,0,0,1,30.87,77c-.35-3.57,1-6.48,4.25-7.89a44.61,44.61,0,0,1,8.59-2.31,36.35,36.35,0,0,1,5-.38c.17-5.27-2.79-7.58-8.13-6.47-1.35.27-2.58,1.18-3.92,1.33a3.34,3.34,0,0,1-2.77-1,2.87,2.87,0,0,1,.75-2.76C39.16,55,44,54.32,48.84,56.37c3.66,1.53,5.22,4.68,5.32,8.45.15,5.33,0,10.67.1,16,0,1.71-.27,2.88-2.4,2.9s-2.83-1.06-2.63-3A16,16,0,0,0,49.14,79.09Zm-.34-9.37a76.76,76.76,0,0,0-9,1.53c-3,.87-4.17,3.26-3.43,5.62s3.33,3.78,6.24,3.21C46.52,79.32,49,75.52,48.8,69.72Z" style="fill:#f79421"/><path d="M119.27,49.58V62.42c2.33,0,4.66.11,6.92.09,3.58,0,6.39-.4,6.39,2.15,0,2.76-1.44,2.31-6.54,2.31-2.08,0-4.23.09-6.88.09,0,4.77-.06,9.31,0,13.85,0,2.09-.78,2.87-2.84,2.82-1.73,0-2.58-.64-2.58-2.44q0-17,0-34c0-1.82.94-2.42,2.62-2.41,5.46,0,10.93-.08,16.39.11a2.19,2.19,0,0,1,2.35,2.13c0,1.89-.65,2.46-2.4,2.45C128.37,49.55,124,49.58,119.27,49.58Z" style="fill:#731445"/><path d="M72.57,79.09c-2.36-.28-4.18-1.72-4.3-4.08-.24-4.56-.09-9.37-.08-14.15h4.43A2.5,2.5,0,0,0,75.3,58.4a2.57,2.57,0,0,0-2.68-2.55H68c0-1.91,0-3.53,0-5,0-1.92-.87-2.65-2.76-2.61s-2.56.77-2.53,2.51,0,3.45,0,5.11H61.23a2.57,2.57,0,0,0-2.68,2.55,2.13,2.13,0,0,0,.67,1.54.79.79,0,0,0,.54.48,2.65,2.65,0,0,0,1.47.44h1.39c0,4.33-.09,8.88,0,13.21.15,5.68,3.45,9.32,9,9.74,1.13.09,3-.77,3.4-1.67C75.85,80.28,74.56,79.33,72.57,79.09Z" style="fill:#f79421"/><path d="M179.33,60.73c2.42-1.58,3.65-3.91,6.54-4.84s3.58,1.15,3.57,1.73c0,1.07-.81,2.77-1.66,3.05C182.13,62.53,180,65,179.63,71c-.18,3.3-.14,6.62-.06,9.92.05,2-.74,2.89-2.82,2.87s-2.62-.9-2.61-2.75q.06-11,0-22.09c0-1.91.47-3,2.68-3s2.61,1.34,2.52,3.14C179.3,59.86,179.33,60.69,179.33,60.73Z" style="fill:#731445"/><path d="M272,61.3a49.54,49.54,0,0,1,6-5c1.25-.77,3.5-1.6,4.24.89.65,2.21-.2,3.47-2.83,3.8-3.87.5-6.48,3.95-6.91,8.91-.31,3.51-.23,7-.2,10.58,0,2-.31,3.27-2.77,3.25s-2.65-1.5-2.64-3.38q.06-10.59,0-21.18c0-1.94.24-3.34,2.73-3.3s2.5,1.48,2.43,3.21C272,59.9,272,60.71,272,61.3Z" style="fill:#731445"/><path d="M41.77,119h4.64l.83,5.35c-2.08-.12-4.27.35-5.31-.52C41.13,123.13,41.77,120.75,41.77,119Z" style="fill:#f79421"/><path d="M69.17,115.61l-3.1-4.32,3.42-3.1,4,3.39Z" style="fill:#f79421"/><path d="M2,88c5.53-.64,5.53-.64,5.95,3.87L3.25,93.54Z" style="fill:#f79421"/><path d="M38,118.67l-.75,4.85-5.17-1C32.5,117.28,32.88,117,38,118.67Z" style="fill:#f79421"/><path d="M54.91,117l1.9,4.94-5.44,1.56-1-5Z" style="fill:#f79421"/><path d="M6.76,102.2,4.43,97.45,9.08,95.7C11.86,99.76,11.82,99.86,6.76,102.2Z" style="fill:#f79421"/><path d="M58.6,115.71l4.18-2.22,3,4.2-5.07,3Z" style="fill:#f79421"/><path d="M29.57,116.11,27.81,121l-5-2.37,2.71-4.51Z" style="fill:#f79421"/><path d="M117.88,3.64c1-.33,1.69-.61,2.4-.76s1.65-.2,2.83-.33c.22,1.61.43,3.1.66,4.82l-4.42.89Z" style="fill:#731445"/><path d="M79.27,104.54l-3.12,4.13-3.86-3.43C74.77,101.5,74.77,101.5,79.27,104.54Z" style="fill:#f79421"/><path d="M19.45,116.48,15.2,113l3.63-3.74,3.37,2.69Z" style="fill:#f79421"/><path d="M12.21,110,9,106,13.3,103l3,3.52Z" style="fill:#f79421"/><path d="M84.2,31.94l2.49-4.89,4.22,2.89-1.83,3.57Z" style="fill:#731445"/><path d="M108.49,12.43l-4,2.49c-.54-.64-1.1-1.25-1.59-1.89s-.81-1.22-1.41-2.11L106.06,8Z" style="fill:#731445"/><path d="M81.35,40.61l1.42-4.8L87.35,37C86.53,41.63,86.53,41.63,81.35,40.61Z" style="fill:#731445"/><path d="M127.8,6.92c-.94-5.6-.94-5.6,4.23-4.72-.15,1.49-.3,3-.47,4.72Z" style="fill:#731445"/><path d="M92.9,26.63l-4.13-2.9L92,19.54,95.67,23Z" style="fill:#731445"/><path d="M83.21,96.5l-1.9,4.18-4.57-2.14C78.1,94.49,78.1,94.49,83.21,96.5Z" style="fill:#f79421"/><path d="M94.54,16.68l3.79-3.42,3.07,4.26L98.2,20Z" style="fill:#731445"/><path d="M84.42,92.37l-4.78-1.19c.23-4,.23-4,5.43-3.25Z" style="fill:#f79421"/><path d="M174.7,51.84c-.85-4.32-.76-4.41,4.49-4.1.1,1.25.19,2.55.31,4.1Z" style="fill:#731445"/><path d="M114.13,4.47l1.35,4.88L112,10.72l-2.34-4.41Z" style="fill:#731445"/><path d="M177.67,38.75c.38,1.68.68,3,1.06,4.68l-5,.46c-.28-1.28-.5-2.28-.8-3.6Z" style="fill:#731445"/><path d="M176.65,35l-4.82,1.55-1.55-3.5,4.47-2.13Z" style="fill:#731445"/><path d="M155.93,9.48l-3,4.06-3.08-1.73,2.15-4.51Z" style="fill:#731445"/><path d="M159.1,18.17l-2.84-2.48c.92-1.31,1.76-2.51,2.82-4l3.53,2.76Z" style="fill:#731445"/><path d="M140.38,3.06,139.08,8l-3.68-.57L136,2.47Z" style="fill:#731445"/><path d="M142.84,9l1.34-4.71,4.31,1.4-2.11,4.53Z" style="fill:#731445"/><path d="M168.36,20.36l-4.18,3.16-2.41-2.38c1.35-1.48,2.39-2.61,3.62-3.94Z" style="fill:#731445"/><path d="M173.13,27.4l-4.61,2.08c-.67-1-1.22-1.9-1.87-2.93l3.93-3C171.42,24.81,172.16,25.92,173.13,27.4Z" style="fill:#731445"/><path d="M99.5,114.85v-6.46L93.63,99.6h2.45l3,4.6c.55.86,1.07,1.72,1.55,2.58.45-.8,1-1.69,1.66-2.69l3-4.49h2.35l-6.08,8.79v6.46Z" style="fill:#f79421"/><path d="M106.37,109.33a5.7,5.7,0,0,1,1.71-4.55,5.18,5.18,0,0,1,3.47-1.22,5,5,0,0,1,3.73,1.49,5.68,5.68,0,0,1,1.44,4.12,7.31,7.31,0,0,1-.64,3.36,4.48,4.48,0,0,1-1.86,1.9,5.4,5.4,0,0,1-2.67.67,5,5,0,0,1-3.75-1.49A6,6,0,0,1,106.37,109.33Zm1.93,0a4.77,4.77,0,0,0,.92,3.18,3,3,0,0,0,2.33,1,2.94,2.94,0,0,0,2.32-1.06,4.79,4.79,0,0,0,.93-3.23,4.59,4.59,0,0,0-.93-3.11,3.1,3.1,0,0,0-4.65,0A4.7,4.7,0,0,0,108.3,109.33Z" style="fill:#f79421"/><path d="M126,114.85v-1.62a4,4,0,0,1-3.51,1.87,4.42,4.42,0,0,1-1.82-.37,3,3,0,0,1-1.26-.94,3.44,3.44,0,0,1-.58-1.39,9.3,9.3,0,0,1-.11-1.75v-6.84h1.87v6.12a11.74,11.74,0,0,0,.11,2,2,2,0,0,0,.75,1.16,2.32,2.32,0,0,0,1.42.42,3.08,3.08,0,0,0,1.58-.43,2.38,2.38,0,0,0,1-1.18,5.74,5.74,0,0,0,.31-2.16v-5.91h1.87v11Z" style="fill:#f79421"/><path d="M130.44,114.85v-11h1.69v1.67a4.67,4.67,0,0,1,1.19-1.55,2.05,2.05,0,0,1,1.2-.37,3.65,3.65,0,0,1,1.92.6l-.64,1.74a2.71,2.71,0,0,0-1.37-.41,1.79,1.79,0,0,0-1.11.37,2.05,2.05,0,0,0-.69,1,7.18,7.18,0,0,0-.31,2.18v5.78Z" style="fill:#f79421"/><path d="M143.18,114.85v-11h1.68v1.57a4,4,0,0,1,3.52-1.82,4.56,4.56,0,0,1,1.83.36,2.91,2.91,0,0,1,1.26.94,3.74,3.74,0,0,1,.58,1.38,10.77,10.77,0,0,1,.1,1.82v6.79h-1.87v-6.72a4.94,4.94,0,0,0-.22-1.71,1.73,1.73,0,0,0-.77-.9,2.44,2.44,0,0,0-1.31-.34,3,3,0,0,0-2.06.76,3.75,3.75,0,0,0-.87,2.88v6Z" style="fill:#f79421"/><path d="M162.44,111.29l1.93.24a4.76,4.76,0,0,1-1.69,2.64,5.14,5.14,0,0,1-3.17.93,5.08,5.08,0,0,1-3.84-1.49,5.87,5.87,0,0,1-1.42-4.19,6.06,6.06,0,0,1,1.44-4.32,4.82,4.82,0,0,1,3.72-1.54,4.71,4.71,0,0,1,3.62,1.51,6,6,0,0,1,1.4,4.24c0,.11,0,.28,0,.5h-8.23a4.26,4.26,0,0,0,1,2.79,3.06,3.06,0,0,0,2.31,1,2.85,2.85,0,0,0,1.75-.54A3.57,3.57,0,0,0,162.44,111.29Zm-6.15-3h6.17a3.76,3.76,0,0,0-.71-2.09,2.88,2.88,0,0,0-2.32-1.08,3,3,0,0,0-2.17.86A3.43,3.43,0,0,0,156.29,108.27Z" style="fill:#f79421"/><path d="M165.33,114.85l4-5.74-3.73-5.3H168l1.69,2.59c.32.49.58.9.77,1.23.31-.45.59-.86.84-1.21l1.87-2.61h2.23l-3.81,5.2,4.1,5.84h-2.29l-2.27-3.43-.61-.93-2.9,4.36Z" style="fill:#f79421"/><path d="M181.16,113.18l.27,1.65A7,7,0,0,1,180,115a3.24,3.24,0,0,1-1.58-.32,1.79,1.79,0,0,1-.79-.85,6.5,6.5,0,0,1-.23-2.21v-6.36h-1.37v-1.45h1.37v-2.74l1.86-1.12v3.86h1.88v1.45h-1.88v6.46a3.09,3.09,0,0,0,.1,1,.7.7,0,0,0,.32.36,1.15,1.15,0,0,0,.64.14A5.75,5.75,0,0,0,181.16,113.18Z" style="fill:#f79421"/><path d="M187.86,111.56l1.85-.3a2.64,2.64,0,0,0,.87,1.71,3.07,3.07,0,0,0,2,.59,3,3,0,0,0,1.92-.52,1.59,1.59,0,0,0,.62-1.24,1.12,1.12,0,0,0-.55-1,8,8,0,0,0-1.91-.64,18.32,18.32,0,0,1-2.86-.9,2.69,2.69,0,0,1-1.2-1,2.73,2.73,0,0,1-.41-1.48,2.92,2.92,0,0,1,.33-1.37,3.07,3.07,0,0,1,.92-1,3.88,3.88,0,0,1,1.19-.55,5.71,5.71,0,0,1,1.62-.22,6.43,6.43,0,0,1,2.29.37,3.16,3.16,0,0,1,1.45,1,4,4,0,0,1,.64,1.71l-1.83.25a2,2,0,0,0-.72-1.34,2.7,2.7,0,0,0-1.69-.47,3.08,3.08,0,0,0-1.84.42,1.25,1.25,0,0,0-.55,1,1.07,1.07,0,0,0,.22.66,1.84,1.84,0,0,0,.72.5c.19.06.74.22,1.66.47a26.11,26.11,0,0,1,2.77.87,2.88,2.88,0,0,1,1.23,1,2.72,2.72,0,0,1,.45,1.6,3.1,3.1,0,0,1-.55,1.76,3.5,3.5,0,0,1-1.58,1.28,5.72,5.72,0,0,1-2.32.45,5.26,5.26,0,0,1-3.29-.89A4.19,4.19,0,0,1,187.86,111.56Z" style="fill:#f79421"/><path d="M203.2,113.18l.27,1.65a7.07,7.07,0,0,1-1.41.17,3.24,3.24,0,0,1-1.58-.32,1.79,1.79,0,0,1-.79-.85,6.5,6.5,0,0,1-.23-2.21v-6.36h-1.38v-1.45h1.38v-2.74l1.86-1.12v3.86h1.88v1.45h-1.88v6.46a3.09,3.09,0,0,0,.1,1,.7.7,0,0,0,.32.36,1.15,1.15,0,0,0,.64.14A5.75,5.75,0,0,0,203.2,113.18Z" style="fill:#f79421"/><path d="M212.44,111.29l1.94.24a4.77,4.77,0,0,1-1.7,2.64,5.11,5.11,0,0,1-3.16.93,5,5,0,0,1-3.84-1.49,5.83,5.83,0,0,1-1.42-4.19,6.1,6.1,0,0,1,1.43-4.32,4.86,4.86,0,0,1,3.73-1.54,4.72,4.72,0,0,1,3.62,1.51,6,6,0,0,1,1.4,4.24c0,.11,0,.28,0,.5h-8.24a4.26,4.26,0,0,0,1,2.79,3.09,3.09,0,0,0,2.31,1,2.88,2.88,0,0,0,1.76-.54A3.56,3.56,0,0,0,212.44,111.29Zm-6.14-3h6.16a3.76,3.76,0,0,0-.7-2.09,2.88,2.88,0,0,0-2.32-1.08,3,3,0,0,0-2.17.86A3.38,3.38,0,0,0,206.3,108.27Z" style="fill:#f79421"/><path d="M216.58,119.09V103.81h1.71v1.43a4.13,4.13,0,0,1,1.36-1.26,3.74,3.74,0,0,1,1.84-.42,4.44,4.44,0,0,1,2.5.72,4.5,4.5,0,0,1,1.63,2.06,7.43,7.43,0,0,1,.55,2.91,7.32,7.32,0,0,1-.61,3,4.62,4.62,0,0,1-4.21,2.8,3.59,3.59,0,0,1-1.68-.39,4,4,0,0,1-1.22-1v5.38Zm1.69-9.7a4.78,4.78,0,0,0,.87,3.15,2.64,2.64,0,0,0,2.09,1,2.73,2.73,0,0,0,2.14-1,5,5,0,0,0,.89-3.27,4.89,4.89,0,0,0-.87-3.17,2.62,2.62,0,0,0-2.08-1,2.69,2.69,0,0,0-2.11,1.12A5,5,0,0,0,218.27,109.39Z" style="fill:#f79421"/><path d="M227.53,111.56l1.85-.3a2.55,2.55,0,0,0,.87,1.71,3,3,0,0,0,2,.59,2.91,2.91,0,0,0,1.91-.52,1.57,1.57,0,0,0,.63-1.24,1.14,1.14,0,0,0-.55-1,8.17,8.17,0,0,0-1.92-.64,18.1,18.1,0,0,1-2.85-.9,2.77,2.77,0,0,1-1.21-1,2.9,2.9,0,0,1-.07-2.85,2.88,2.88,0,0,1,.92-1,3.77,3.77,0,0,1,1.19-.55,5.62,5.62,0,0,1,1.62-.22,6.41,6.41,0,0,1,2.28.37,3.1,3.1,0,0,1,1.45,1,4,4,0,0,1,.65,1.71l-1.84.25a2,2,0,0,0-.72-1.34,2.7,2.7,0,0,0-1.69-.47,3.1,3.1,0,0,0-1.84.42,1.25,1.25,0,0,0-.55,1,1.08,1.08,0,0,0,.23.66,1.7,1.7,0,0,0,.72.5c.18.06.73.22,1.65.47A25.35,25.35,0,0,1,235,109a2.77,2.77,0,0,1,1.23,1,2.72,2.72,0,0,1,.45,1.6,3.17,3.17,0,0,1-.54,1.76,3.55,3.55,0,0,1-1.58,1.28,5.76,5.76,0,0,1-2.33.45,5.23,5.23,0,0,1-3.28-.89A4.19,4.19,0,0,1,227.53,111.56Z" style="fill:#f79421"/><path d="M244.56,101.76V99.6h1.87v2.16Zm0,13.09v-11h1.87v11Z" style="fill:#f79421"/><path d="M249.13,114.85v-11h1.69v1.57a4,4,0,0,1,3.51-1.82,4.61,4.61,0,0,1,1.84.36,2.93,2.93,0,0,1,1.25.94,3.58,3.58,0,0,1,.58,1.38,10.48,10.48,0,0,1,.11,1.82v6.79h-1.88v-6.72a5.25,5.25,0,0,0-.21-1.71,1.79,1.79,0,0,0-.78-.9,2.43,2.43,0,0,0-1.3-.34,3,3,0,0,0-2.07.76,3.75,3.75,0,0,0-.87,2.88v6Z" style="fill:#f79421"/><path d="M265.85,111.56l1.85-.3a2.55,2.55,0,0,0,.87,1.71,3,3,0,0,0,2,.59,2.91,2.91,0,0,0,1.91-.52,1.57,1.57,0,0,0,.63-1.24,1.14,1.14,0,0,0-.55-1,8.17,8.17,0,0,0-1.92-.64,18.1,18.1,0,0,1-2.85-.9,2.77,2.77,0,0,1-1.21-1,2.9,2.9,0,0,1-.07-2.85,2.88,2.88,0,0,1,.92-1,3.77,3.77,0,0,1,1.19-.55,5.62,5.62,0,0,1,1.62-.22,6.41,6.41,0,0,1,2.28.37,3.05,3.05,0,0,1,1.45,1,4,4,0,0,1,.65,1.71l-1.84.25a2,2,0,0,0-.72-1.34,2.7,2.7,0,0,0-1.69-.47,3.1,3.1,0,0,0-1.84.42,1.25,1.25,0,0,0-.55,1,1.08,1.08,0,0,0,.23.66,1.7,1.7,0,0,0,.72.5c.18.06.73.22,1.65.47a25.35,25.35,0,0,1,2.77.87,2.77,2.77,0,0,1,1.23,1,2.72,2.72,0,0,1,.45,1.6,3.17,3.17,0,0,1-.54,1.76,3.55,3.55,0,0,1-1.58,1.28,5.76,5.76,0,0,1-2.33.45,5.23,5.23,0,0,1-3.28-.89A4.19,4.19,0,0,1,265.85,111.56Z" style="fill:#f79421"/><path d="M277.11,101.76V99.6H279v2.16Zm0,13.09v-11H279v11Z" style="fill:#f79421"/><path d="M281.34,115.77l1.82.27a1.75,1.75,0,0,0,.63,1.23,3.18,3.18,0,0,0,1.91.52,3.38,3.38,0,0,0,2-.52,2.57,2.57,0,0,0,1-1.46,12.11,12.11,0,0,0,.14-2.4,3.86,3.86,0,0,1-3.06,1.44,4.18,4.18,0,0,1-3.53-1.64,6.35,6.35,0,0,1-1.25-3.94,7.18,7.18,0,0,1,.58-2.92,4.58,4.58,0,0,1,1.66-2.07,4.49,4.49,0,0,1,2.55-.72,3.93,3.93,0,0,1,3.22,1.58v-1.33h1.73v9.54a9.07,9.07,0,0,1-.53,3.66,3.83,3.83,0,0,1-1.66,1.7,5.71,5.71,0,0,1-2.8.63,5.34,5.34,0,0,1-3.2-.89A3,3,0,0,1,281.34,115.77Zm1.55-6.64a4.81,4.81,0,0,0,.86,3.17,2.74,2.74,0,0,0,2.17,1,2.77,2.77,0,0,0,2.16-1,4.65,4.65,0,0,0,.87-3.12,4.5,4.5,0,0,0-.9-3,2.77,2.77,0,0,0-2.17-1,2.68,2.68,0,0,0-2.12,1A4.52,4.52,0,0,0,282.89,109.13Z" style="fill:#f79421"/><path d="M293.38,114.85V99.6h1.87v5.48a4.18,4.18,0,0,1,3.31-1.52,4.46,4.46,0,0,1,2.13.48,2.86,2.86,0,0,1,1.3,1.34,6.14,6.14,0,0,1,.39,2.47v7H300.5v-7a2.93,2.93,0,0,0-.6-2,2.26,2.26,0,0,0-1.73-.64,3,3,0,0,0-1.56.43,2.47,2.47,0,0,0-1.05,1.17,5.53,5.53,0,0,0-.31,2v6Z" style="fill:#f79421"/><path d="M309.16,113.18l.27,1.65A6.91,6.91,0,0,1,308,115a3.24,3.24,0,0,1-1.58-.32,1.79,1.79,0,0,1-.79-.85,6.78,6.78,0,0,1-.23-2.21v-6.36h-1.37v-1.45h1.37v-2.74l1.86-1.12v3.86h1.88v1.45h-1.88v6.46a3.09,3.09,0,0,0,.1,1,.75.75,0,0,0,.32.36,1.15,1.15,0,0,0,.64.14A5.75,5.75,0,0,0,309.16,113.18Z" style="fill:#f79421"/><path d="M311.38,114.85v-2.13h2.13v2.13Z" style="fill:#f79421"/></svg>