<svg id="Capa_1" data-name="Capa 1" xmlns="http://www.w3.org/2000/svg" viewBox="0 0 315 73.36"><path d="M149.62,41.32a3.11,3.11,0,0,0,5.2,1.37c2.14-1.91,1.63-5.79-.92-7.44A11,11,0,0,0,148,33.84a14.92,14.92,0,0,0-7.16,1.26h0a4.5,4.5,0,0,0-1.81.95,6.47,6.47,0,0,0-1,10.13c1.48,1.54,3.29,2.68,4.87,4.11v0a5.37,5.37,0,0,1,1.32,3.28,1.85,1.85,0,0,1-1.46,2,1.94,1.94,0,0,1-2.17-1.16,5.71,5.71,0,0,1-.43-1.92c-.07-.77,0-1.63-.7-2.19h0c-.85-1.15-2-1.45-3.81-1a3.61,3.61,0,0,0-2.62,3.09,1,1,0,0,1-1,1.14,3,3,0,0,1-2.32-.3h0l-.16-.13a.14.14,0,0,0-.13-.06,4.37,4.37,0,0,1-1-3.27,41.45,41.45,0,0,1,1.81-10,26,26,0,0,0,1-4.24c.11-1.06-.31-1.43-1.36-1.33a48.74,48.74,0,0,0-5.45,1.23,3.46,3.46,0,0,1-2.29-.05,14.71,14.71,0,0,0-7.85-1.23,16,16,0,0,0-8.95,3.33c-4.17,3.36-5.77,7.94-5.82,13.12a2.62,2.62,0,0,1-1,2.19,4.3,4.3,0,0,1-1.79.82,6,6,0,0,1-3-.39.44.44,0,0,0-.42-.18,10.43,10.43,0,0,1-4.16-5c-.12-.32-.33-.72.14-.88a6.07,6.07,0,0,0,1-.62,21.54,21.54,0,0,0,5.8-4.79,9.56,9.56,0,0,0,2.46-5.28,1.87,1.87,0,0,0-2.24-2.22c-.23,0-.46,0-.69.05a12.74,12.74,0,0,0-6.26,2.16.34.34,0,0,0-.15.06c-.28,0-.46.22-.66.38-1.22.9-1.38,1.45-.81,2.85a2.07,2.07,0,0,1,0,1.43,5.9,5.9,0,0,1-4.25,4c-.5.14-.59-.06-.54-.44a26.13,26.13,0,0,1,.47-3.07c.78-3.14,1.66-6.25,2.46-9.38s1.67-6.26,2.23-9.47a28.63,28.63,0,0,0,.58-4.61,5.77,5.77,0,0,0-1.27-3.76,6.38,6.38,0,0,0-5-2.25,12.42,12.42,0,0,0-7.93,2.14h0l0,0-.16.12h0a3.25,3.25,0,0,0-1.09,1,1.39,1.39,0,0,0-.42,1.42c.21.59.75.66,1.28.69a2.9,2.9,0,0,1,2.63,2,10.84,10.84,0,0,1,.37,1.14h0l0,.86v.51l0,1.2a4,4,0,0,0-.1.59,63.63,63.63,0,0,1-1.69,10.72c-1.11,4.82-2.5,9.57-3.72,14.35a42.15,42.15,0,0,0-1.75,9.31c0,1.44.46,1.94,1.91,1.87,2.36-.12,4.71-.42,7.08-.38A1,1,0,0,0,79.88,59h0a.48.48,0,0,0,.22-.44,46.67,46.67,0,0,1,1.32-6.84c.13-.59.27-1.17.44-1.75,0-.13.06-.34.31-.35s.19.3.23.42c.3.88.51,1.79.81,2.68a13.45,13.45,0,0,0,2.17,4.53h0a5.17,5.17,0,0,0,3.19,2.57c3.16,1.06,8.49-.74,10.75-3.55l0-.06,0,0a1,1,0,0,0,.48-.45c.34-.57.64-.67,1,0a4.23,4.23,0,0,0,1.2,1.64h0c.06.06.11.13.16.19v0c.09.11.17.23.27.33,3.15,3,8.33,2.57,12.12.64h0a11,11,0,0,0,3.7-2.34c.47-.41.66-.33.92.19a5.24,5.24,0,0,0,2.29,2.5h0a6.11,6.11,0,0,0,4.47,1.18A13.81,13.81,0,0,0,133.6,57c.4-.33.56-.23.81.08A6.84,6.84,0,0,0,136.85,59a16.86,16.86,0,0,0,10.41,1.09,9.67,9.67,0,0,0,6.54-3.83c1.58-2.18,2.41-6.27-.39-8.86a20.93,20.93,0,0,0-3.54-2.6l-.06,0a21.71,21.71,0,0,1-3-2.65,4.18,4.18,0,0,1-.4-3.4h0a10.92,10.92,0,0,1,.73-.92,2.39,2.39,0,0,1,2.39-.45c.81.53.62,1.22.39,2A3.66,3.66,0,0,0,149.62,41.32ZM110.55,52.88a8.12,8.12,0,0,1-.23-3.25,20.73,20.73,0,0,1,2.33-8.58c.34-.63.78-1.2,1.17-1.8A5.54,5.54,0,0,1,117,37.7a2.18,2.18,0,0,1,2.59,2.18,32.53,32.53,0,0,1-2.42,11.85A5.11,5.11,0,0,1,114,54.6,2.5,2.5,0,0,1,110.55,52.88Zm35.83-14.3a1.43,1.43,0,0,1,.1-.41A1.43,1.43,0,0,0,146.38,38.58Zm.17-.55a2.2,2.2,0,0,1,.27-.43A2.2,2.2,0,0,0,146.55,38Z" style="fill:#89298a"/><path d="M313.76,51.2a1.28,1.28,0,0,0-1.58.24,4.52,4.52,0,0,0-.48.5,3.52,3.52,0,0,1-4.43,1.27l-.22-.12a3.86,3.86,0,0,1-1.29-3.24A41.16,41.16,0,0,1,307.23,41c.49-1.78,1.08-3.52,1.41-5.34.2-1.1-.22-1.59-1.32-1.57a7.2,7.2,0,0,0-1,.11,35.68,35.68,0,0,0-4.17,1.13,3.36,3.36,0,0,1-2.53,0,14.47,14.47,0,0,0-7.67-1.27,15.19,15.19,0,0,0-6.89,2h0a4.63,4.63,0,0,0-1.43.78,11.79,11.79,0,0,0-4.11,4.42,1.56,1.56,0,0,0-.28.3A17.13,17.13,0,0,0,277.15,53a7.14,7.14,0,0,0,2.32,4.65h0a7.41,7.41,0,0,0,5.83,2.53,15.28,15.28,0,0,0,10.76-4.27c.32.14.37.48.53.74a5.64,5.64,0,0,0,1.74,2,.81.81,0,0,0,.53.39h0a5,5,0,0,0,3.27,1.12,13,13,0,0,0,10-4.38,6.89,6.89,0,0,0,2.08-3.12C314.31,52.07,314.32,51.55,313.76,51.2ZM297.19,40.13a35,35,0,0,1-2.43,11.44,5.17,5.17,0,0,1-3.82,3.2,2.61,2.61,0,0,1-2.79-1.84,6,6,0,0,1-.37-2.55,21.66,21.66,0,0,1,2.66-9.82A5,5,0,0,1,295,37.69,2.12,2.12,0,0,1,297.19,40.13ZM279.5,41.54a1.79,1.79,0,0,1,0,.23A1.79,1.79,0,0,0,279.5,41.54Z" style="fill:#89298a"/><path d="M274,36.83h0a7.24,7.24,0,0,0-4.16-2.38A11.69,11.69,0,0,0,260,36.76c-.18.13-.31.36-.66.27.06-1.14.58-2.19.74-3.32l.06-.29c1-3.14,2-6.3,2.77-9.51a21,21,0,0,0,.84-5.88,5.61,5.61,0,0,0-4.31-5.41,12.45,12.45,0,0,0-9.56,1.55,4.59,4.59,0,0,0-2,2c-.38.76,0,1.49.76,1.5a3.35,3.35,0,0,1,3.18,2.09l.05.17a25.65,25.65,0,0,1-.51,8.82c-.88,4.69-2.59,9.16-3.8,13.76a26.13,26.13,0,0,0-1.12,8.34c.09,1.54-.22,2-1.67,2.56-2.23.88-4-.43-3.92-2.81a18.6,18.6,0,0,1,1-4.79,21.13,21.13,0,0,0,1.26-6,4.35,4.35,0,0,0-1-3.28h0a4.27,4.27,0,0,0-2.94-1.9c-3.24-.88-6.28-.09-9.21,1.24a12.9,12.9,0,0,0-4.67,3.45l0,0c-.48-.07-.39-.51-.51-.79a6.1,6.1,0,0,0-3.47-3.65l-.41-.12a3.16,3.16,0,0,0-2-.51,13.49,13.49,0,0,0-4.84.81,14.76,14.76,0,0,0-6.52,4.22l-.16.16-.51.46-.09-.26-.1,0,.1,0a11.39,11.39,0,0,0,.6-3.47,2.1,2.1,0,0,0-2.17-2.18c-1.2.07-2.42.12-3.61.26a13.12,13.12,0,0,0-5.05,1.42,1.7,1.7,0,0,0-.92,2.37,6.27,6.27,0,0,1,.3,2.72,82.18,82.18,0,0,1-1.89,9.82c0,.2-.07.42-.26.52a7,7,0,0,0-1.57,1.46,3.3,3.3,0,0,1-3.57.79,3.16,3.16,0,0,1-1.83-3.11A42.55,42.55,0,0,1,188,42a.14.14,0,0,0,0-.15c0-.2,0-.39,0-.59,0,.2,0,.39,0,.59.22-.75.48-1.48.67-2.23a27.27,27.27,0,0,0,1-4.19c0-.53,0-1.11-.65-1.23a4,4,0,0,0-1.55,0c-1.39.32-2.76.71-4.14,1.11a3.9,3.9,0,0,1-2.87,0,14.57,14.57,0,0,0-7.13-1.2,15.43,15.43,0,0,0-11.36,5,11.73,11.73,0,0,0-2.82,4.86h0a1.21,1.21,0,0,0-.18.28,17.82,17.82,0,0,0-.92,8,7.17,7.17,0,0,0,1.13,3.46,6,6,0,0,0,2.44,2.78h0c.09.21.29.27.46.37a9.58,9.58,0,0,0,6.35,1,15.57,15.57,0,0,0,7.94-3.54c.74-.63.74-.66,1.2.16a6.18,6.18,0,0,0,5.27,3.51,12.42,12.42,0,0,0,7.8-2.31c.65-.45,1.25-1,2-1.5,0,.7-.08,1.27-.12,1.84-.11,1.47.4,2,1.85,2,2.42-.08,4.82-.43,7.25-.38A1.28,1.28,0,0,0,203,58.46a40.68,40.68,0,0,1,1.41-8.14.79.79,0,0,0-.32,0,.39.39,0,0,0-.2.13.39.39,0,0,1,.2-.13.79.79,0,0,1,.32,0l.24-.82a40.05,40.05,0,0,1,2.78-6.07c.31-.14.43-.45.63-.68a7.94,7.94,0,0,1,3.45-2.64,2,2,0,0,1,2.72,2.19,25.64,25.64,0,0,1-.64,4c-.88,3.91-2.26,7.72-2.44,11.79-.07,1.55.38,2.13,2,2.07,2.45-.08,4.88-.47,7.33-.37a.84.84,0,0,0,.86-.45.69.69,0,0,0,.39-.71,32.78,32.78,0,0,1,.41-3.82,36.43,36.43,0,0,1,1.9-7.26l.06-.17a3.47,3.47,0,0,1,0-1.07,3.47,3.47,0,0,0,0,1.07c.4-.85.8-1.7,1.22-2.54a10.56,10.56,0,0,1,3.09-4.06,2.62,2.62,0,0,1,4,.4,9.46,9.46,0,0,1,0,2.71h0c-.19.57-.37,1.14-.56,1.7A35.71,35.71,0,0,0,229.91,52c-.58,4.11,1.21,7,5,7.88a11.43,11.43,0,0,0,8.34-1.28h0A11.71,11.71,0,0,0,247,55.76c.43-.47.62-.59,1,.05a8.61,8.61,0,0,0,4.65,3.55,17.89,17.89,0,0,0,9.91.49,13.36,13.36,0,0,0,6.55-3.25h0a15.4,15.4,0,0,0,4.8-6.29h0a16.91,16.91,0,0,0,1.56-10A6.07,6.07,0,0,0,274,36.83ZM256.73,55.76l.13.05Zm.45.08h0a3.18,3.18,0,0,1-.68-2.42c.21-2,.5-3.92.83-5.88.48-1.73,1-3.46,1.44-5.2A4.14,4.14,0,0,1,264,39.27h0a3.11,3.11,0,0,1,1.33,3.06,34.07,34.07,0,0,1-1.59,7.81c-.75,2.28-1.66,4.49-3.64,6A2.65,2.65,0,0,1,257.18,55.84Zm-80.28-8h0c-.39,1.14-.77,2.28-1.17,3.42a5.36,5.36,0,0,1-3.15,3.25A2.54,2.54,0,0,1,169.07,53a5.69,5.69,0,0,1-.4-2.2A23.49,23.49,0,0,1,170,43.32a12.66,12.66,0,0,1,1.91-3.66,4.51,4.51,0,0,1,3.84-2,2.29,2.29,0,0,1,2.29,2.61,43.92,43.92,0,0,1-1.11,7.4ZM162,58.6h0Zm.52.06-.24,0,.24,0a2.4,2.4,0,0,1,.38.12A2.4,2.4,0,0,0,162.47,58.66Zm61.86-13.13.18-.38Z" style="fill:#89298a"/><path d="M54.72,38.12a11.6,11.6,0,0,0,4.33-1.52,11.61,11.61,0,0,0-3.36-1.23c-.31-.06-.7-.07-.82-.31s.26-.46.41-.68a11.91,11.91,0,0,0,2.25-3.76l.15-.11a11.28,11.28,0,0,0,.88-7.78,7.58,7.58,0,0,0-5-5.65h0a6.07,6.07,0,0,0-2.63-.7c-.54-.05-.76-.21-.79-.82a7.91,7.91,0,0,0-5.74-7.48c-4.71-1.26-8.69.36-12.21,3.44h0c-.52.39-.72.17-.8-.38A8.65,8.65,0,0,0,30,7.65a10.06,10.06,0,0,0-1.49,4l-.19.18a16,16,0,0,0-9-4.22,8.59,8.59,0,0,0-9.7,7.77c-.06.68-.3.81-.92.87a8.17,8.17,0,0,0-6.39,3.57h0L2.22,20l0,0c-.1.13-.22.26-.31.4a9.22,9.22,0,0,0-1,6.34,9.05,9.05,0,0,0,1.28,3.87l.15.29a11.89,11.89,0,0,0,2,3.13C5,35,5,35,3.87,35.27A8.81,8.81,0,0,0,.82,36.51,11.31,11.31,0,0,0,5,38l0,.26a13.84,13.84,0,0,0-4.1,11.2A6.54,6.54,0,0,0,2.17,53a.09.09,0,0,0,.06.11,6.36,6.36,0,0,0,2.71,2.45.34.34,0,0,0,.36.19l.22.12a6.8,6.8,0,0,0,3.28.94c.61.05.8.2.87.84A8.09,8.09,0,0,0,13.28,64a.14.14,0,0,0,.17.13,5.16,5.16,0,0,0,1.75.92c4.41,1.26,8.26,0,11.79-2.66h0c.32,0,.5-.28.7-.47.6-.58.79-.37.92.36a9.66,9.66,0,0,0,1.28,3.46,8.31,8.31,0,0,0,1.25-3c.12-.78.35-.9,1-.47.48.31,1,.61,1.44.94a13.42,13.42,0,0,0,8,2.59,8.13,8.13,0,0,0,7.51-4.37l.23-.5a6.22,6.22,0,0,0,.93-3.24c0-.57.2-.77.79-.8a6.58,6.58,0,0,0,3.31-1h0a6,6,0,0,0,3.24-2.94.13.13,0,0,0,.06-.14,3.7,3.7,0,0,0,.81-1.69c1-3.94-.05-7.48-2.18-10.79C55.84,39.58,55.29,38.9,54.72,38.12ZM36.26,11a.1.1,0,0,0,0,.05A.1.1,0,0,1,36.26,11Zm-.67.56h0Zm-5.27,0a30.22,30.22,0,0,1,.37,5,14.57,14.57,0,0,1,5.36-5h0a.1.1,0,0,0,.12,0c.54-.12,1.07-.28,1.61-.35a3.9,3.9,0,0,1,4.64,3.53,10.32,10.32,0,0,1-.8,5.4,14.08,14.08,0,0,1-4.07,5.26,39.55,39.55,0,0,1-6.95,4,1.38,1.38,0,0,1-1.22,0c-1.7-.78-3.34-1.69-5-2.59h0l-2.76-2.08a3.14,3.14,0,0,0-1.07-1h0l-.69-1a10.92,10.92,0,0,1-2.26-7.84,3.86,3.86,0,0,1,4.29-3.66A7.08,7.08,0,0,1,26,12.87a12.93,12.93,0,0,1,3.45,3.92A15.93,15.93,0,0,1,29.6,13c.14-.58,0-1.28.68-1.66ZM19.77,23.28a2.62,2.62,0,0,1-.22-.25A2.62,2.62,0,0,0,19.77,23.28Zm9.88,12.26h0Zm.12,0,.1-.08Zm10-5.37-.08.16ZM13.85,48.54l.17-.07Zm.63-.51,0,0Zm7.88-2.75.1-.15ZM27.5,61.52l-.11.09Zm-2.05-.9h0l0,0a.88.88,0,0,1,0,.17.88.88,0,0,0,0-.17,15.37,15.37,0,0,1-2.3,1.14,3.92,3.92,0,0,1-5.49-3.06,7.43,7.43,0,0,1-.1-2.49C18,52,20.46,49,23.94,46.79a1,1,0,0,0,.58-1.16c-.21-1.65-.18-1.65-1.76-.87H22.7l-.05,0-.09.17.09-.17c-.19.05-.38.11-.58.15s-.43.28-.63.1,0-.44,0-.64c.82-2.33,1.56-4.72,3.44-6.5h0a1.28,1.28,0,0,0,.34-.06c.22-.14.61-.19.5-.59s-.43-.29-.71-.29c-.52,0-1,0-1.56,0s-.84.14-1.1.68c-1.83,3.84-3.88,7.52-7.62,9.9a.08.08,0,0,0-.1.06l-1.28.53a10.23,10.23,0,0,1-5.49.81,4,4,0,0,1-3.47-4.76,7.66,7.66,0,0,1,1.2-2.94,14.34,14.34,0,0,1,4.42-4.1c-2.06,0-3.9.16-5.67-.7,1.81-.8,3.65-.65,5.69-.67l-.44-.3C7.26,33.91,5.28,32,4.55,29.17a3.84,3.84,0,0,1,1.24-4.29,5.1,5.1,0,0,1,3.07-1,13.3,13.3,0,0,1,5.44,1.23h0a20.71,20.71,0,0,1,3.36,2.63,23.75,23.75,0,0,1,4.24,6.55,2.42,2.42,0,0,0,3,1.74c.62-.08.62-.31.49-.76a1.21,1.21,0,0,0-.49-.58,6.87,6.87,0,0,1-1.7-2.26c-.6-1.2-1-2.5-1.55-3.72-.07-.34,0-.52.41-.5l.22,0-.22,0a2.21,2.21,0,0,0,.76.36c2.28.89,4.64,1.64,6.11,3.81a3.69,3.69,0,0,1,.74,2.74,7.49,7.49,0,0,0-2.17-2.94c-.27.82-.53,1.57-.75,2.34a2.68,2.68,0,0,0,.18,2.33,3.43,3.43,0,0,1,.26,3.44l0,.07A7.53,7.53,0,0,0,25.7,45.3c.28,3.49,2.54,6.06,4.26,9,.26-.45.48-.82.68-1.2.91-1.72,2.25-3.18,2.91-5.06a8.14,8.14,0,0,0-.83-7.72h0a3.25,3.25,0,0,1,.29-3.5,2.08,2.08,0,0,0,.28-1.49,4.82,4.82,0,0,0-.63-2.05c-.2-.33.08-1-.43-1s-.67.55-.86,1l0,.07h0l-.12.17h0a3.1,3.1,0,0,0-.85,1.58l-.26,0a1.69,1.69,0,0,1-.2.34,1.69,1.69,0,0,0,.2-.34c0-1.25,0-2.5,0-3.75,0-.23-.2-.62.28-.66v2.66c1.56-3.35,4.88-3.95,7.93-5.18,0,.79-.41,1.34-.49,2h0a.07.07,0,0,0,0,.1l0,0h0c-.93,1.73-1.45,3.69-3,5-.49.41-.15,1,.5,1,1.75.08,1.75.08,2.48-1.56.15-.34.31-.67.47-1a8,8,0,0,0,1.24-2.38,1.64,1.64,0,0,0,.6-.6,16.91,16.91,0,0,1,2.43-3,11.28,11.28,0,0,1,9.16-3.44,4,4,0,0,1,3.61,5.19,9,9,0,0,1-2.06,3.75A17.36,17.36,0,0,1,50,36a18.66,18.66,0,0,1,4.91.5l.24,0h0l.18.32c-.05,0-.08,0-.08.07a15.26,15.26,0,0,1-5.23.6,14.47,14.47,0,0,1,4.84,5.12h0v0l0,0a.71.71,0,0,1,.55.11.71.71,0,0,0-.55-.11c.76,2,.94,3.94-.76,5.61v0h0a13.2,13.2,0,0,1-1.32.62,9.12,9.12,0,0,1-6.53-.58,14.13,14.13,0,0,1-4.74-3.51l0,0h0c-1.3-1.88-2.81-3.68-3.56-5.85-.57-1.63-1.55-2-3-1.76-.28,0-.56,0-.72.33s.15.5.36.67A6.87,6.87,0,0,1,36.67,41c.23.61.56,1.18.84,1.78h0c.18.54.34,1.09.53,1.63s-.08.54-.47.44l-.47-.21c-1.82-.73-1.82-.73-1.83,1.2a.7.7,0,0,0,.36.71c.56.34,1.1.7,1.65,1.06l.16-.06-.16.06A17.32,17.32,0,0,1,41,51.93a.09.09,0,0,0,.05.12c.13.31.27.63.4,1a10,10,0,0,1,.79,5.47,3.83,3.83,0,0,1-4,3.45,7.52,7.52,0,0,1-4.9-2.19,19.23,19.23,0,0,1-2.82-3.2,17.67,17.67,0,0,1-.55,5.19v0c0,.1,0,.21,0,.31,0-.1,0-.21,0-.31-.49,0-.41-.38-.5-.64A15.78,15.78,0,0,1,29,56.54,17.24,17.24,0,0,1,25.45,60.62Zm4.37,1.7a.27.27,0,0,0,.09-.12A.27.27,0,0,1,29.82,62.32Z" style="fill:#89298a"/><path d="M28.61,21.15A4.15,4.15,0,0,0,26.7,25.6a3.19,3.19,0,0,0,3.23,2.92,3,3,0,0,0,2.55-2.73,4.05,4.05,0,0,0-.95-4A2.47,2.47,0,0,0,28.61,21.15Z" style="fill:#89298a"/></svg>