<svg id="Capa_1" data-name="Capa 1" xmlns="http://www.w3.org/2000/svg" viewBox="0 0 315 73.36"><path d="M193.59,29.15a8.79,8.79,0,0,1,4.29.55c1.85.92,4,1.4,5.43,2.93s3.43,2.76,4.42,4.62,2.32,3.56,2.6,5.9a13.18,13.18,0,0,1-.71,5.19c-.4,1.54-1.39,2.83-1.53,4.44a3.67,3.67,0,0,1-.92,1.67,13,13,0,0,1-5,4.57,18,18,0,0,1-5.59,1.69,8,8,0,0,1-2.24-.13,20.24,20.24,0,0,1-9.47-3.67,14.53,14.53,0,0,1-5-6.41,19.51,19.51,0,0,1-1-11.32,7.79,7.79,0,0,1,.94-2.69c.48-.77.21-1.71.25-2.57a4,4,0,0,1,.62-2.65,2.65,2.65,0,0,1,2.21-1c.5,0,.72.32.38.74-.48.58-.4,1.29-.6,1.93a7.18,7.18,0,0,0,0,5.26,1,1,0,0,1-.06.64,15.2,15.2,0,0,0,0,8.38,11.58,11.58,0,0,0,3,5.59,12.48,12.48,0,0,0,4.2,2.82,17.32,17.32,0,0,0,6.3,1.39,10,10,0,0,0,4.16-1.2A9.45,9.45,0,0,0,205,50.47c1.18-2.73,2.15-5.59,1.61-8.68a6.43,6.43,0,0,0-1.68-3.32,20.24,20.24,0,0,0-5.69-4.31A9.5,9.5,0,0,0,196,33.09a15.54,15.54,0,0,1-2.63-.65,2,2,0,0,0-1.29,0q-2.52,1-5,2.15c-.21.1-.33.37-.5.55a.78.78,0,0,1-.92.27c-.65-.29-1.34-2.44-.85-2.94.72-.75,1.28-1.74,2.23-2.17a12.24,12.24,0,0,1,5.75-1.19Z" style="fill:#d13c3d"/><path d="M230,54.18a20.93,20.93,0,0,0,.9-5.6c.18-3.37,0-6.75-.07-10.12a11.2,11.2,0,0,0-.7-3.84c-.26-.68.09-.92.65-.85a12.84,12.84,0,0,0,4,0c.62-.1.95.38.56,1-.9,1.35-.73,2.86-.74,4.32,0,5.22,0,10.43,0,15.65,0,1,.13,1.93.16,2.9,0,.5.55.62.64,1.09.16.84.06,1-.8,1a14.11,14.11,0,0,0-2.43,0c-.93.12-1.29-.19-1.25-1.08.13-.59.26-1.19.41-1.79.06-.25.15-.49-.15-.64a.54.54,0,0,0-.72.23c-.35.54-.64,1.12-1,1.69A16.31,16.31,0,0,1,224.46,60a11.89,11.89,0,0,1-3.87-.21A6.2,6.2,0,0,1,216,56.83a5,5,0,0,1-1-2.46c-.18-3.68,0-7.35-.07-11l-.09-4.43A15,15,0,0,0,214.3,35a1.1,1.1,0,0,1,.13-1.06l.66-.15a8.29,8.29,0,0,0,3.06,0,1.15,1.15,0,0,1,1.38.56,2.21,2.21,0,0,0-.92,1.74c-.14,4.2-.2,8.41-.15,12.62,0,.75.09,1.5.13,2.24a6.33,6.33,0,0,0,.2,2.33c-.33.63.23,1.09.43,1.53a4.18,4.18,0,0,0,3.3,2.67,27.45,27.45,0,0,0,3.74,0c.34,0,.8,0,.8-.55A3.33,3.33,0,0,0,230,54.18Z" style="fill:#3c3c3b"/><path d="M87.1,46.75a71.4,71.4,0,0,0-.12-8.9c-.14-1.16.07-2.4-.71-3.51-.36-.52.39-.56.73-.57.65,0,1.3.11,2,.13a6.83,6.83,0,0,0,2-.15.56.56,0,0,1,.67.17.53.53,0,0,1,0,.7,4.7,4.7,0,0,0-.72,3.12c-.07,2.18-.21,4.36-.14,6.55,0,.62.24.78.86.75,3.32-.17,6.64-.14,10,0,.89,0,1.1-.23,1-1-.14-2.65-.25-5.3-.37-8a1.71,1.71,0,0,0-.47-1.29.65.65,0,0,1-.22-.75c.14-.35.45-.27.73-.23a12.27,12.27,0,0,0,3.92,0c.7-.13,1,.31.7.79a7.75,7.75,0,0,0-.66,4.09c-.09,5.78-.1,11.56,0,17.34a5.22,5.22,0,0,0,.61,2.8c.3.48.15.91-.58.86a31.88,31.88,0,0,0-4,0c-.78,0-1-.24-.53-.87a3.69,3.69,0,0,0,.54-1.94c.22-3,.32-6,.35-9,0-1.16-.1-1.3-1.24-1.3-3.23,0-6.45,0-9.68,0-.7,0-1,.22-1,.9,0,3.37,0,6.75.27,10.11.05.5.38.76.57,1.14.32.66.15,1-.54,1a37.93,37.93,0,0,0-4.13,0c-.62,0-.88-.09-.51-.8a9.88,9.88,0,0,0,.69-4.3C87.17,51.94,87.1,49.34,87.1,46.75Z" style="fill:#3c3c3b"/><path d="M243.52,59.62h-1.69c-.3,0-.67.16-.85-.18a.8.8,0,0,1,.14-1,2.11,2.11,0,0,0,.52-1.72c.14-6.69.1-13.37,0-20.06a3.77,3.77,0,0,0-.56-1.93c-.39-.65-.2-1.11.39-1,2.85.4,5.69-.09,8.53-.1a11.57,11.57,0,0,1,4.48.72c1.48.59,3,3.71,2.54,5.22a8.75,8.75,0,0,1-3.16,5,8.61,8.61,0,0,1-2.07,1.22c-.79.3-.89.65-.34,1.34,2.37,3,4.4,6.21,6.78,9.19.77,1,1.82,1.57,2.58,2.51.15.18.43.31.27.61s-.39.21-.59.19a27.67,27.67,0,0,0-3.28-.07c-1.06,0-1.63-.82-2.12-1.54-1.78-2.64-3.67-5.21-5.53-7.8a9.22,9.22,0,0,0-2.3-2.71,2,2,0,0,0-.67-.3c-1.17-.27-1.39-.06-1.34,1.12.11,2.34.19,4.68.27,7a7.24,7.24,0,0,0,.7,3.63c.31.54-.16.64-.56.63-.72,0-1.44-.06-2.16-.1Zm9.38-19.51c0-.43,0-.87,0-1.31a3.34,3.34,0,0,0-2.42-3.06,9.25,9.25,0,0,0-3.41-.37c-1.33,0-1.41.05-1.48,1.4-.13,2.65-.21,5.3-.34,7.95a.81.81,0,0,0,.85,1,7.33,7.33,0,0,0,4.74-1A4.71,4.71,0,0,0,252.9,40.11Z" style="fill:#3c3c3b"/><path d="M3.21,59.64H1.15c-.28,0-.61.09-.71-.27s-.11-.68.2-.85a1,1,0,0,0,.51-1,150.49,150.49,0,0,0,0-21.34c0-.55.05-1.13-.6-1.46-.26-.14-.2-.51-.12-.78s.26-.21.46-.19c2.66.38,5.31,0,8-.14a10.18,10.18,0,0,1,5.46.92,5.61,5.61,0,0,1,2.45,2.79,8.19,8.19,0,0,1,.42,5.13,7.42,7.42,0,0,1-7.3,6.09c-.69,0-1.38,0-2.07,0a1.52,1.52,0,0,1-1.11-.41c-.21-.21-.43-.4-.33-.72s.42-.34.69-.35a13.26,13.26,0,0,1,1.41,0,3.73,3.73,0,0,0,2.58-1.1c2.27-2,2.39-4.7,1.94-7.41a4.11,4.11,0,0,0-4-3.16c-.91,0-1.82,0-2.73,0s-.95.39-1,1c-.07,2.9-.19,5.79-.22,8.69,0,3.93,0,7.86.24,11.79a3.72,3.72,0,0,0,.54,2c.37.53.23.86-.5.83S3.93,59.64,3.21,59.64Z" style="fill:#3c3c3b"/><path d="M279.52,36.84c-.22.7-.57.62-.94.12-1.59-2.16-3.72-1.76-5.91-1.31a7.26,7.26,0,0,0-4.54,3,11.58,11.58,0,0,0-1.32,2.77,13.48,13.48,0,0,0-.48,6.74,9.88,9.88,0,0,0,2.41,5.58,9.37,9.37,0,0,0,8.66,3,7.1,7.1,0,0,0,4.82-2.54c.25-.32.52-.48.86-.21s.22.56,0,.84c-1.06,1.36-2,2.84-3.55,3.73a10.42,10.42,0,0,1-3,1.15,11.36,11.36,0,0,1-10.61-2.89,12.87,12.87,0,0,1-2.68-4,15,15,0,0,1-.41-11.22,10.89,10.89,0,0,1,5.41-6.45c3.32-1.78,6.77-1.94,10.35-1.48a6.2,6.2,0,0,0,2.23.06c.6-.13.95.12.9.73-.1,1.24-.07,2.49-.06,3.74,0,.31,0,.76-.35.87s-.48-.37-.69-.6C280.16,38,280.17,37.24,279.52,36.84Z" style="fill:#3c3c3b"/><path d="M60.84,46.77a11.17,11.17,0,0,1,.69-5.13,11.75,11.75,0,0,1,5.41-6.46c3.3-1.81,6.75-2,10.33-1.49a8,8,0,0,0,2.24.08c.8-.12,1.15.28,1,1.11a7,7,0,0,0,0,3.06c.11.43.16,1-.38,1.1a1,1,0,0,1-1-.79c-.57-2-2.31-2.51-4-2.84a8.92,8.92,0,0,0-5,.58,7.42,7.42,0,0,0-2.92,2.23,11,11,0,0,0-2.3,6.67A14.34,14.34,0,0,0,65.75,51a8.42,8.42,0,0,0,3.77,4.48,9.78,9.78,0,0,0,6.81,1.23,7,7,0,0,0,4.49-2.39c.23-.3.5-.67.91-.39s.23.7,0,1a14.92,14.92,0,0,1-3.45,3.6A8.72,8.72,0,0,1,75,59.79,12.59,12.59,0,0,1,67.68,59,11.49,11.49,0,0,1,63,54.8,12.72,12.72,0,0,1,60.84,46.77Z" style="fill:#3c3c3b"/><path d="M126.78,46c-.39,1.59.22,3.29.79,4.84a8.64,8.64,0,0,0,4,4.75,9.6,9.6,0,0,0,6.72,1.2,6.83,6.83,0,0,0,4.66-2.61.4.4,0,0,1,.56-.17c.37.18.32.53.18.81A10.6,10.6,0,0,1,142,57a8.65,8.65,0,0,1-5.7,2.82,16.42,16.42,0,0,1-4.75-.21,10.23,10.23,0,0,1-3.31-1.37,10.8,10.8,0,0,1-3.5-3.52,15.17,15.17,0,0,1-1.9-4.87,14.38,14.38,0,0,1,.38-7.57,11.43,11.43,0,0,1,5.58-7.13A16.2,16.2,0,0,1,139,33.65a6.63,6.63,0,0,0,2.51.08c.62-.15.79.3.75.76a20.26,20.26,0,0,0,0,4.12.45.45,0,0,1-.26.54c-.33.09-.45-.18-.54-.4a5.39,5.39,0,0,0-3.72-3.26,7.81,7.81,0,0,0-3.63-.06,7.62,7.62,0,0,0-5.79,4A11.73,11.73,0,0,0,126.78,46Z" style="fill:#3c3c3b"/><path d="M166.69,48.14c-.57-1-1.72-1-2.56-1.57-2.15-1.43-4-3-5-5.52a3.41,3.41,0,0,1,.05-2.27,7.24,7.24,0,0,1,2.36-3.44,4.85,4.85,0,0,1,1.05-.74c2.57-1.37,5.36-1.12,8.1-1,.9,0,1.79.08,2.69.08.6.58,0,1.45.5,2.07a1.41,1.41,0,0,0-.21,1.15.6.6,0,0,1-.25.66c-.33.17-.38-.18-.56-.33-.51-.44-.86-1-1.54-1.32-2.35-1-4.56-.35-6.77.45-1.55.63-2.19,3.24-1.13,4.65a13.57,13.57,0,0,0,5.12,3.94,12.57,12.57,0,0,1,4.89,3.76A6,6,0,0,1,174,55a8.26,8.26,0,0,1-4.79,4.37,9.47,9.47,0,0,1-4.41.58,34.19,34.19,0,0,1-5.39-1c-.78-.21-1.23-.58-1.1-1.43a19.42,19.42,0,0,0,0-2.53c0-.27-.06-.63.26-.73s.42.27.56.49A7.29,7.29,0,0,0,166.54,58a4.7,4.7,0,0,0,4.18-4.31,2.48,2.48,0,0,0-.47-2.12,3.84,3.84,0,0,1-.48-1.09A6.47,6.47,0,0,0,166.69,48.14Z" style="fill:#3c3c3b"/><path d="M303.84,55.32c.05.37.16.72-.16,1a1.51,1.51,0,0,0-.27,1.15c0,1.83-.29,2-2.34,2-3.28.1-6.57,0-9.86,0a18.86,18.86,0,0,0-2.71,0c-.67.1-1-.16-.75-.83a14.06,14.06,0,0,0,.74-5.53c0-4.87,0-9.74,0-14.61a8,8,0,0,0-.89-4.14c-.37-.63.16-.84.68-.78,3.75.4,7.5,0,11.25.07.37,0,.75-.07,1.12-.07a1,1,0,0,1,1.16,1.2,5.4,5.4,0,0,0,.24,1.65c.08.28.14.58-.22.71s-.46,0-.63-.25a3.47,3.47,0,0,0-2.78-1.28c-1.7-.13-3.41-.07-5.11-.35a.92.92,0,0,0-1.11,1c-.06,2.59,0,5.18-.11,7.77,0,.8.28,1,1,.93,2-.07,4-.1,6-.13a3.21,3.21,0,0,0,2-.38.41.41,0,0,1,.59,0,.59.59,0,0,1,0,.7,2.79,2.79,0,0,1-1.77,1.1,15.46,15.46,0,0,1-6.82.7c-.79-.1-1,.12-1,.87.08,2.53.11,5.06.16,7.58,0,.41,0,.82,0,1.22-.07.86.24,1.28,1.08,1.23,2.18-.13,4.37-.23,6.54-.5a4.24,4.24,0,0,0,2.77-1.43A1.57,1.57,0,0,1,303.84,55.32Z" style="fill:#3c3c3b"/><path d="M30.05,33.42c1.36.06,3,.15,4.67.2.51,0,.87.23.75.71a12.73,12.73,0,0,0,0,2.69c0,.24,0,.54-.26.65s-.4-.14-.53-.3c-1.58-2-3.79-2.22-6.08-2a4.55,4.55,0,0,0-3.74,2.76c-.53,1.69.76,3.69,2.1,4.7C29,44.42,31.48,45.34,33.51,47c2.37,1.88,3.36,4.27,2.62,7.14A7.64,7.64,0,0,1,33,58.31,9.51,9.51,0,0,1,27.56,60a15,15,0,0,1-5.42-.82,2.91,2.91,0,0,0-.9-.23c-.93,0-1.25-.51-1.22-1.38a7.87,7.87,0,0,0-.17-2.69c0-.14-.22-.49.15-.51s.58-.16.79.26a6.25,6.25,0,0,0,4,3.08,6.65,6.65,0,0,0,3,.34c2.65-.36,4.31-1.48,4.64-4.38a4.71,4.71,0,0,0-2.25-4.5c-2.52-1.71-5.42-2.89-7.51-5.21a5.61,5.61,0,0,1-1.8-4.46,6.16,6.16,0,0,1,2.33-4.13C25.11,33.78,27.37,33.36,30.05,33.42Z" style="fill:#3c3c3b"/><path d="M48.19,59.54c-.65,0-1.31.09-2,.1-.46,0-.66-.1-.46-.68a19.12,19.12,0,0,0,.44-9.79,31.92,31.92,0,0,0-.92-3.68,7.48,7.48,0,0,0-1.18-2.55,10.47,10.47,0,0,1-.75-1.66c-1.3-2.32-2.4-4.77-4.43-6.6a.6.6,0,0,1-.21-.75.54.54,0,0,1,.66-.21,18.81,18.81,0,0,0,3.09.21A2.22,2.22,0,0,1,44.12,35a27.78,27.78,0,0,1,2.72,5.59,31.24,31.24,0,0,1,1.94,5.71c0,.21.15.43.43.42a.5.5,0,0,0,.41-.33c.94-1.86,1.79-3.77,2.86-5.55.65-1.07,1.21-2.19,1.76-3.3a2.7,2.7,0,0,0,.07-2.9c-.37-.53,0-1,.64-.88a8.4,8.4,0,0,0,3.35,0c.24,0,.61-.16.73.17a.84.84,0,0,1-.17.87,30.61,30.61,0,0,0-3.42,4.91c-1,1.74-2.2,3.37-3.14,5.17a35.44,35.44,0,0,0-1.78,4.3,7.77,7.77,0,0,0-.2,2,35.28,35.28,0,0,0,0,6.08,2.33,2.33,0,0,0,.47,1.39c.43.53.19.91-.51.93s-1.38,0-2.06,0Z" style="fill:#3c3c3b"/><path d="M115.28,59.61H113.5c-.3,0-.67.16-.83-.23a.92.92,0,0,1,.08-1c.62-.54.52-1.22.54-1.9.24-6.48.18-13,0-19.46a3,3,0,0,0-.52-2.12.91.91,0,0,1-.09-1.06c.22-.35.56-.09.86-.06a10.76,10.76,0,0,0,3.35,0c.82-.19,1,0,.83.83a33.09,33.09,0,0,0-.7,7.15c-.08,3.43-.11,6.87,0,10.3.09,2.35,0,4.74.82,7,.21.55-.17.59-.53.58-.69,0-1.38-.06-2.06-.09Z" style="fill:#3c3c3b"/><path d="M179.31,1.11c.35,0,.55.11.78.45a6.91,6.91,0,0,1,1.25,3.73A95.06,95.06,0,0,0,182.83,17a26.18,26.18,0,0,0,1.48,6.29,22,22,0,0,0,1.34,2.92,1,1,0,0,1-.25,1.41c-.5.36-.87,0-1.34-.36a11.29,11.29,0,0,1-3.19-4.52,11.74,11.74,0,0,1-.7-3.06c-.28-2.47-1.06-4.86-1.24-7.32s-1-4.89-1-7.41a5.59,5.59,0,0,0-.26-1.75c-.11-.35-.49-.69-.24-1.11A2.34,2.34,0,0,1,179.31,1.11Z" style="fill:#d13c3d"/><path d="M199,27.81a1.84,1.84,0,0,1-1.43-.85,1.66,1.66,0,0,1,.15-1.76c1.41-2.67,3.28-5,4.85-7.62A46.74,46.74,0,0,1,206.25,12l.06-.07c1.5-2.07,2.72-2.15,4.43-.3a.68.68,0,0,1-.15,1.12A12,12,0,0,0,208,16.3c-.51.81-1.11,1.57-1.64,2.37-.84,1.28-1.6,2.63-2.5,3.87s-1.89,2.38-2.85,3.56c-.35.43-.75.83-1.09,1.27A1.22,1.22,0,0,1,199,27.81Z" style="fill:#d13c3d"/><path d="M173.41,33.67c-.9,0-1.79,0-2.69-.08-2.74-.11-5.53-.36-8.1,1a4.85,4.85,0,0,0-1.05.74,1.11,1.11,0,0,0-1-.83A14.24,14.24,0,0,1,157,32.89c-1.27-.65-2.56-1.22-3.84-1.83-1.54-.73-2.68-2-2.64-3.43a2,2,0,0,1,3.08-1.83c1.21.57,2.43,1.16,3.62,1.79a20.2,20.2,0,0,1,4.87,3,11.84,11.84,0,0,0,4.32,2.22,12.81,12.81,0,0,0,3.1.37,18.15,18.15,0,0,0,3.89.4s.06,0,.07,0S173.42,33.64,173.41,33.67Z" style="fill:#d13c3d"/><path d="M219.53,34.38a1.15,1.15,0,0,0-1.38-.56,8.29,8.29,0,0,1-3.06,0c2.26-2.23,4.91-4,7.37-6A22.71,22.71,0,0,1,226,25.68a2.3,2.3,0,0,1,1.56-.15,3.77,3.77,0,0,0,1.67,0,1,1,0,0,1,1.36.76c.2.75-.48,1-.93,1.18a12.41,12.41,0,0,0-2.12,1.16A69.25,69.25,0,0,0,220.07,34,5.07,5.07,0,0,1,219.53,34.38Z" style="fill:#d13c3d"/><path d="M230,54.18a3.33,3.33,0,0,1-3,2.79c-1.31-.38-2.57-.88-3.85-1.32A14.61,14.61,0,0,1,220.12,54c-.43-.28-.74-.76-1.33-.73a6.33,6.33,0,0,1-.2-2.33,2.12,2.12,0,0,0,.64.12c1.81-.09,3.29.87,4.91,1.42a10.88,10.88,0,0,0,3,.85,1.93,1.93,0,0,1,1,.29A3.09,3.09,0,0,0,230,54.18Z" style="fill:#d13c3d"/><path d="M192.94,72.25a1.72,1.72,0,0,1-1.55-2c.41-1.93.33-3.91.73-5.83a2.46,2.46,0,0,1,1.2-2c.94-.42,2.14.7,2,1.9a33.7,33.7,0,0,1-1.43,7.46C193.75,72.17,193.58,72.26,192.94,72.25Z" style="fill:#d13c3d"/><path d="M166.69,48.14a6.47,6.47,0,0,1,3.08,2.35c-3.15.78-6.38.62-9.58.82a4,4,0,0,0-1.28.2,1.66,1.66,0,0,1-.83.07,1.23,1.23,0,0,1-1.07-.76c-.1-.41.4-.72.8-.9a15.49,15.49,0,0,1,7.12-1.46C165.53,48.48,166.19,48.71,166.69,48.14Z" style="fill:#d13c3d"/><path d="M204.86,60.25a1.68,1.68,0,0,1,1.53.55,21.38,21.38,0,0,1,4.84,8.26,1,1,0,0,1-.77,1.35c-.61.17-.89-.11-1.12-.76a14.26,14.26,0,0,0-2.17-3.73C206.11,64.47,205,63,204,61.59a1,1,0,0,1-.06-1.05C204.11,60.05,204.6,60.31,204.86,60.25Z" style="fill:#d13c3d"/><path d="M164.58,36.35c2.21-.8,4.42-1.48,6.77-.45.68.29,1,.88,1.54,1.32.18.15.23.5.56.33a.6.6,0,0,0,.25-.66,1.41,1.41,0,0,1,.21-1.15A5.14,5.14,0,0,1,176,37.09c.26.38.29.68,0,1-1,1-1.69,1.61-3.28.88a15.73,15.73,0,0,0-3.15-.71A18.81,18.81,0,0,1,164.58,36.35Z" style="fill:#d13c3d"/><path d="M305.39,37.14A4.75,4.75,0,0,1,310,32.4,4.59,4.59,0,0,1,313.29,34a4.38,4.38,0,0,1,1.33,3.67,4.78,4.78,0,0,1-4.83,4A4.33,4.33,0,0,1,305.39,37.14Zm8.31.77a1.79,1.79,0,0,0,0-1.5,5.81,5.81,0,0,0-2.52-2.84c-2.23-1.15-4.83,1.3-5,3.26a3.16,3.16,0,0,0,.57,1.86,3.54,3.54,0,0,0,4.88,1.67A5.52,5.52,0,0,0,313.7,37.91Z" style="fill:#3c3c3b"/><path d="M175.23,62.47c-.52,0-.83-.07-.93-.44a.79.79,0,0,1,.22-.85,12.5,12.5,0,0,1,4.37-2.75,7.7,7.7,0,0,0,1.62-.7.91.91,0,0,1,1.28.13c.33.43,0,.78-.38,1.1a14.31,14.31,0,0,1-4.69,2.75C176.13,61.91,175.74,62.52,175.23,62.47Z" style="fill:#d13c3d"/><path d="M214.43,34A1.1,1.1,0,0,0,214.3,35a15,15,0,0,1,.53,3.89.58.58,0,0,0-.59.17c-.34.4-.75.74-1.09,1.15s-.74.8-1.33.38a1.29,1.29,0,0,1-.45-1.84,16.33,16.33,0,0,1,2.27-3.37c.41-.39.3-1,.63-1.41,0,0,0,0,.08-.05S214.46,33.89,214.43,34Z" style="fill:#d13c3d"/><path d="M229.54,58c.32-.57.61-1.15,1-1.69a.54.54,0,0,1,.72-.23c.3.15.21.39.15.64-.15.6-.28,1.2-.41,1.79C230.6,58,230,58.28,229.54,58Z" style="fill:#d13c3d"/><path d="M308.14,37a12.16,12.16,0,0,0-.1-1.49c-.14-.78.26-1.06.92-1,1,0,2.13-.32,3,.64.71.8.73,1.22-.21,1.76-.73.41-.83.73-.17,1.29.36.3.72.76.23,1.19s-.78,0-1-.38-.64-.53-.59-1-.19-.57-.57-.55a.57.57,0,0,0-.58.69,2.13,2.13,0,0,0,.1.55.67.67,0,0,1-.15.77.53.53,0,0,1-.61.05c-.38-.16-.33-.47-.31-.79C308.08,38.11,308.1,37.55,308.14,37ZM310,35.27c-.33.08-1-.23-1,.62s.56.74,1.09.78,1-.06,1-.76S310.55,35.26,310,35.27Z" style="fill:#3c3c3b"/></svg>