<svg id="Capa_1" data-name="Capa 1" xmlns="http://www.w3.org/2000/svg" viewBox="0 0 359.11 138.18"><path d="M137.33,60.37a56.27,56.27,0,0,1-4.4,22.33,30.71,30.71,0,0,1-17.6,17c-10.89,4.24-22,8-33.11,11.44a12.16,12.16,0,0,0-4.5,2.36,63.13,63.13,0,0,1-5.12,3.93,5.42,5.42,0,0,1-6.8,0,11.58,11.58,0,0,1-1.74-1.27c-3.53-3.47-7.92-5.17-12.58-6.55-8.45-2.51-16.64-5.8-25-8.55-13.76-4.52-21.08-14.24-24.11-28C-.47,60.27,1.72,48.2,6.93,36.41a102.16,102.16,0,0,1,7.51-14.74c2.16-3.31,4.2-4.12,8-3.29a99.58,99.58,0,0,1,21.57,7.83c1.57.74,2.27.51,3.19-1A139.59,139.59,0,0,1,64.18,3c3.28-3.49,6.88-3.42,10.17.13A141.67,141.67,0,0,1,91.13,25.23c.89,1.45,1.6,1.74,3.18,1a100.53,100.53,0,0,1,21.57-7.84c3.85-.83,6-.08,8,3.28C130.2,32.12,135.15,43.13,137,55.32,137.27,57.23,137.25,59.18,137.33,60.37ZM49.66,103.63l.38.19-.25-.3c-.66-.84-1.29-1.7-2-2.51A96.15,96.15,0,0,1,35.92,83.63a37.7,37.7,0,0,1-1.74-33.22,134.63,134.63,0,0,1,7.4-15.53c.76-1.36.83-1.93-.88-2.5A161.13,161.13,0,0,0,22.89,27.5c-1.53-.32-2.35-.05-3.13,1.28C12.29,41.51,7.92,55.07,9.29,70c1.08,11.83,6.83,20.51,18.15,25,4.06,1.62,8.12,3.24,12.2,4.8C43,101.09,46.2,102.69,49.66,103.63Zm38.85-.12c.42.34.83.08,1.21-.07,7.59-3,15.25-5.87,22.75-9.09C120.31,91,125.38,85,127.81,76.8A44.08,44.08,0,0,0,129,58.45a73.81,73.81,0,0,0-10.6-30c-.54-.86-1-1.38-2.22-1.13a152.6,152.6,0,0,0-18.65,5.1c-1.44.5-1.49,1.05-.81,2.29a143.28,143.28,0,0,1,7.41,15.52q7,17.36-1.88,33.8a118.66,118.66,0,0,1-13.7,19.49l-.27.2.25.06ZM39.19,70.27a29.27,29.27,0,0,0,3.44,12.78,79.72,79.72,0,0,0,25,28.27,2.33,2.33,0,0,0,3.19,0A79.84,79.84,0,0,0,95.32,83.94,29.88,29.88,0,0,0,97.16,58a128.71,128.71,0,0,0-26.5-42.69c-1.24-1.33-1.83-1.12-2.93.06a127.75,127.75,0,0,0-26.86,43.7A29.62,29.62,0,0,0,39.19,70.27Z" style="fill:#0bb3af"/><path d="M49.79,103.52l.25.3-.38-.19Z" style="fill:#fefefe"/><path d="M88.51,103.51l0,.29-.25-.06.27-.2Z" style="fill:#fefefe"/><path d="M194.11,65l18.8,27.81c-3,0-5.76-.17-8.46,0a4.18,4.18,0,0,1-4.38-2.35c-4.16-6.65-8.53-13.17-12.75-19.78a2.63,2.63,0,0,0-2.65-1.46c-1.82.11-3.65,0-5.66,0V92.71h-9.78V23.3H179V61.22c2.37,0,4.56.07,6.74,0,.47,0,1-.63,1.34-1.08,4-5.32,8-10.69,12.13-16a3.59,3.59,0,0,1,2.38-1.18c3-.14,6,0,9.46,0Z" style="fill:#09292f"/><path d="M256.26,69.23H219.4c-.48,7.91,5.82,15.1,13.93,16.28,6.19.9,11.65-.8,16.7-4.21.56-.37,1.1-.78,1.77-1.27l3.88,6.75a3.15,3.15,0,0,1-.45.59c-9.18,7.79-24.5,9-34.46,2.34-9.44-6.27-12.54-15.42-11.2-26.35,1.26-10.27,8.08-18.28,18-20.72,8.3-2,16.19-1.22,22.59,5.13,5,4.93,6.47,11.25,6.37,18C256.52,66.85,256.38,67.88,256.26,69.23Zm-9.6-7.31c-.35-5.22-2.07-9.39-7-11.57-8.61-3.8-18.84,2.08-20,11.57Z" style="fill:#09292f"/><path d="M307.3,69.27H270.52A16.22,16.22,0,0,0,284.4,85.5c6.31,1,11.88-.8,17-4.34.5-.34,1-.7,1.58-1.11l3.94,6.85a27.08,27.08,0,0,1-11.68,6c-10.54,2.49-20.17.91-28-7.12-11.72-12-8.83-38,11.4-43.13,8.36-2.12,16.3-1.28,22.74,5.13,4.91,4.89,6.42,11.14,6.32,17.87,0,1-.12,2-.2,2.94A4.74,4.74,0,0,1,307.3,69.27Zm-9.47-7.34c-.31-5.17-2-9.29-6.81-11.5-8.6-4-19,1.94-20.15,11.5Z" style="fill:#09292f"/><path d="M357.81,92.74H347.75v-2c0-7.79.05-15.57,0-23.36a32.32,32.32,0,0,0-.71-6.73c-1.45-6.36-6.13-9.61-13.22-9.42A11.75,11.75,0,0,0,322,61.28a39,39,0,0,0-.49,6.4c-.05,7.66,0,15.32,0,23v2.06h-9.73c0-.5-.11-1-.11-1.54,0-8.58-.16-17.17.08-25.74a32.87,32.87,0,0,1,1.77-10c3.25-9,10.32-13,19.53-13.63A24.31,24.31,0,0,1,345.55,44c7,3.42,11,9.28,11.52,16.8C357.78,71.38,357.6,82,357.81,92.74Z" style="fill:#09292f"/><path d="M168.09,137.25V108.93h9.5a37.48,37.48,0,0,1,6.93.4,7.78,7.78,0,0,1,4.3,2.81,9.84,9.84,0,0,1,.23,10.67,7.85,7.85,0,0,1-3.65,2.91c-1.46.57-4,.84-7.55.84H174v10.69ZM174,113.72v8h3.27a18.17,18.17,0,0,0,4.48-.36,3.93,3.93,0,0,0,1.94-1.33,4,4,0,0,0,0-4.73,3.74,3.74,0,0,0-1.92-1.3,22.12,22.12,0,0,0-4.86-.33Z" style="fill:#09b3b0"/><path d="M192,128l5.77-.54q1,5.43,6.38,5.43a7.06,7.06,0,0,0,4.21-1.11,3.3,3.3,0,0,0,1.53-2.75,2.6,2.6,0,0,0-.53-1.64,3.85,3.85,0,0,0-1.63-1.11,52.92,52.92,0,0,0-5.31-1.46,20.23,20.23,0,0,1-5.53-2,8,8,0,0,1-2.78-2.78,7.16,7.16,0,0,1-1-3.72,7,7,0,0,1,1.33-4.17,8.17,8.17,0,0,1,3.66-2.8,15.45,15.45,0,0,1,5.77-.94q5.16,0,8.06,2.22A8,8,0,0,1,215,117l-5.91.25a4.62,4.62,0,0,0-1.68-3.18,6.28,6.28,0,0,0-3.67-.91A7.06,7.06,0,0,0,200,114a2.28,2.28,0,0,0-1.29,2,2.32,2.32,0,0,0,1.17,1.95,19.44,19.44,0,0,0,5.38,1.73,25.53,25.53,0,0,1,6.44,2.16,7.91,7.91,0,0,1,3,2.91A8.43,8.43,0,0,1,215.8,129a7.91,7.91,0,0,1-2.86,6.2c-1.9,1.67-4.89,2.51-8.94,2.51Q193.23,137.73,192,128Z" style="fill:#09b3b0"/><path d="M226.61,137.25V125.33l-10.71-16.4h6.92l6.87,11.2,6.78-11.2h6.79L232.5,125.36v11.89Z" style="fill:#09b3b0"/><path d="M263.07,126.84l5.72,1.75a12.1,12.1,0,0,1-4.45,6.95,13,13,0,0,1-7.67,2.19,12.66,12.66,0,0,1-9.27-3.5q-4.08-4-4.09-10.89,0-7.25,4.12-11.34,3.58-3.56,9.62-3.55a12.72,12.72,0,0,1,8.24,2.66,10.91,10.91,0,0,1,3.45,5.62l-5.84,1.35a5.89,5.89,0,0,0-2.23-3.52,6.43,6.43,0,0,0-3.93-1.23,6.87,6.87,0,0,0-5.3,2.24c-1.36,1.5-2,4-2,7.4s.66,6.11,2,7.61a6.59,6.59,0,0,0,5.19,2.26,6.08,6.08,0,0,0,4-1.44A8.32,8.32,0,0,0,263.07,126.84Z" style="fill:#09b3b0"/><path d="M272,137.25V108.93h5.89v11.14h11.61V108.93h5.89v28.32h-5.89V124.86H277.9v12.39Z" style="fill:#09b3b0"/><path d="M299.47,137.25V108.93h5.89v28.32Z" style="fill:#09b3b0"/><path d="M327.9,126.84l5.72,1.75a12.1,12.1,0,0,1-4.45,6.95,13,13,0,0,1-7.67,2.19,12.66,12.66,0,0,1-9.27-3.5q-4.1-4-4.09-10.89,0-7.25,4.12-11.34,3.58-3.56,9.62-3.55a12.72,12.72,0,0,1,8.24,2.66,10.91,10.91,0,0,1,3.45,5.62l-5.84,1.35a5.89,5.89,0,0,0-2.23-3.52,6.43,6.43,0,0,0-3.93-1.23,6.87,6.87,0,0,0-5.3,2.24c-1.36,1.5-2,4-2,7.4s.66,6.11,2,7.61a6.59,6.59,0,0,0,5.19,2.26,6.08,6.08,0,0,0,4-1.44A8.32,8.32,0,0,0,327.9,126.84Z" style="fill:#09b3b0"/><path d="M335.33,128l5.77-.54q1,5.43,6.38,5.43a7.06,7.06,0,0,0,4.21-1.11,3.3,3.3,0,0,0,1.53-2.75,2.6,2.6,0,0,0-.53-1.64,3.85,3.85,0,0,0-1.63-1.11,52.92,52.92,0,0,0-5.31-1.46,20,20,0,0,1-5.52-2,8,8,0,0,1-2.79-2.78,7.16,7.16,0,0,1-1-3.72,7,7,0,0,1,1.33-4.17,8.17,8.17,0,0,1,3.66-2.8,15.45,15.45,0,0,1,5.77-.94q5.16,0,8.06,2.22a8,8,0,0,1,3.06,6.35l-5.91.25a4.62,4.62,0,0,0-1.68-3.18,6.28,6.28,0,0,0-3.67-.91,7.06,7.06,0,0,0-3.68.79,2.28,2.28,0,0,0-1.29,2,2.32,2.32,0,0,0,1.17,1.95,19.44,19.44,0,0,0,5.38,1.73,25.38,25.38,0,0,1,6.44,2.16,7.91,7.91,0,0,1,3,2.91,8.43,8.43,0,0,1,1.05,4.34,7.91,7.91,0,0,1-2.86,6.2c-1.9,1.67-4.89,2.51-8.94,2.51Q336.55,137.73,335.33,128Z" style="fill:#09b3b0"/></svg>