<svg id="Capa_1" data-name="Capa 1" xmlns="http://www.w3.org/2000/svg" xmlns:xlink="http://www.w3.org/1999/xlink" viewBox="0 0 315 73.36"><defs><linearGradient id="Degradado_sin_nombre_7" x1="16.16" y1="555.46" x2="53.05" y2="613.64" gradientTransform="translate(0 -548)" gradientUnits="userSpaceOnUse"><stop offset="0" stop-color="#4c41e6"/><stop offset="1" stop-color="#f37cf2"/></linearGradient><linearGradient id="Degradado_sin_nombre_7-7" x1="29.26" y1="576.19" x2="40.1" y2="593.28" xlink:href="#Degradado_sin_nombre_7"/></defs><path d="M27.33,10a7.36,7.36,0,0,1,14.72,0V63.39a7.36,7.36,0,0,1-14.72,0Z" style="fill:#fff"/><path d="M41.64,9.83a7.39,7.39,0,0,1,12.81,7.36L27.74,63.52a7.38,7.38,0,1,1-12.81-7.35Z" style="fill:#fff"/><path d="M54.18,16.92a7.39,7.39,0,0,1,7.36,12.81L15.2,56.44A7.39,7.39,0,0,1,7.84,43.63Z" style="fill:#fff"/><path d="M61.4,29.32A7.36,7.36,0,1,1,61.4,44H8A7.36,7.36,0,0,1,8,29.32Z" style="fill:#fff"/><path d="M61.54,43.63a7.39,7.39,0,0,1-7.36,12.81L7.84,29.73A7.39,7.39,0,0,1,15.2,16.92Z" style="fill:#fff"/><path d="M54.45,56.17a7.38,7.38,0,0,1-12.81,7.35L14.93,17.19A7.39,7.39,0,0,1,27.74,9.83Z" style="fill:#fff"/><path d="M27.33,10a7.36,7.36,0,0,1,14.72,0V63.39a7.36,7.36,0,0,1-14.72,0Z" style="fill-opacity:0.800000011920929;fill:url(#Degradado_sin_nombre_7)"/><path d="M41.64,9.83a7.39,7.39,0,0,1,12.81,7.36L27.74,63.52a7.38,7.38,0,1,1-12.81-7.35Z" style="fill-opacity:0.800000011920929;fill:url(#Degradado_sin_nombre_7)"/><path d="M54.18,16.92a7.39,7.39,0,0,1,7.36,12.81L15.2,56.44A7.39,7.39,0,0,1,7.84,43.63Z" style="fill-opacity:0.800000011920929;fill:url(#Degradado_sin_nombre_7)"/><path d="M61.4,29.32A7.36,7.36,0,1,1,61.4,44H8A7.36,7.36,0,0,1,8,29.32Z" style="fill-opacity:0.800000011920929;fill:url(#Degradado_sin_nombre_7)"/><path d="M61.54,43.63a7.39,7.39,0,0,1-7.36,12.81L7.84,29.73A7.39,7.39,0,0,1,15.2,16.92Z" style="fill-opacity:0.800000011920929;fill:url(#Degradado_sin_nombre_7)"/><path d="M54.45,56.17a7.38,7.38,0,0,1-12.81,7.35L14.93,17.19A7.39,7.39,0,0,1,27.74,9.83Z" style="fill-opacity:0.800000011920929;fill:url(#Degradado_sin_nombre_7)"/><path d="M34.69,51.53C21.2,51.53,10.43,38,10,37.36A1.24,1.24,0,0,1,10,36c.41-.55,11.18-14.17,24.67-14.17S59,35.32,59.35,36a1.21,1.21,0,0,1,0,1.36C59,38,48.18,51.53,34.69,51.53Z" style="fill:#fff"/><path d="M41.91,29.87a3,3,0,0,1-3.13,3A3.12,3.12,0,0,1,37.28,27a8.87,8.87,0,0,0-2.73-.41,10,10,0,1,0,10,10A9,9,0,0,0,41.91,29.87Z" style="fill-opacity:0.800000011920929;fill:url(#Degradado_sin_nombre_7-7)"/><path d="M105.19,37.05a13.28,13.28,0,0,1-.56,3.93A8.88,8.88,0,0,1,103,44.09a7.55,7.55,0,0,1-2.65,2,8.56,8.56,0,0,1-3.59.72,8.93,8.93,0,0,1-2.87-.43A9.44,9.44,0,0,1,92,45.57v7.5H88.66V28.21c.8-.19,1.79-.41,3-.63a22,22,0,0,1,4.13-.35,10.5,10.5,0,0,1,3.9.69,8.49,8.49,0,0,1,3,1.95A8.64,8.64,0,0,1,104.52,33,11.75,11.75,0,0,1,105.19,37.05Zm-3.5,0a7.17,7.17,0,0,0-1.63-5,5.58,5.58,0,0,0-4.33-1.77,18.2,18.2,0,0,0-2.36.11,8.69,8.69,0,0,0-1.35.25V42.43a7.07,7.07,0,0,0,1.77,1,6.69,6.69,0,0,0,2.52.47,5.36,5.36,0,0,0,2.47-.52,4.46,4.46,0,0,0,1.68-1.45,5.89,5.89,0,0,0,.94-2.16A12.06,12.06,0,0,0,101.69,37.05Z" style="fill:#464646"/><path d="M124.86,45.85c-.77.2-1.79.4-3,.62a27.09,27.09,0,0,1-4.39.32,9.28,9.28,0,0,1-3.64-.63,5.84,5.84,0,0,1-2.38-1.79,7,7,0,0,1-1.3-2.72,14,14,0,0,1-.4-3.48V27.63h3.36v9.82c0,2.28.36,3.92,1.08,4.9a4.19,4.19,0,0,0,3.64,1.48l1.12,0,1.08-.09.93-.11a2.81,2.81,0,0,0,.59-.13V27.63h3.36Z" style="fill:#464646"/><path d="M137.56,27.23a9.32,9.32,0,0,1,1,.06c.37,0,.74.08,1.1.14l1,.18c.3.06.53.12.67.16l-.58,2.93a11.42,11.42,0,0,0-1.31-.35,11.85,11.85,0,0,0-2.37-.19,8.87,8.87,0,0,0-1.85.19l-1.21.28V46.4h-3.36v-18a23.64,23.64,0,0,1,3-.81A19.18,19.18,0,0,1,137.56,27.23Z" style="fill:#464646"/><path d="M161.09,37.05a13.28,13.28,0,0,1-.56,3.93,8.9,8.9,0,0,1-1.65,3.11,7.46,7.46,0,0,1-2.65,2,8.49,8.49,0,0,1-3.59.72,9.06,9.06,0,0,1-4.72-1.26v7.5h-3.36V28.21c.79-.19,1.78-.41,3-.63a21.87,21.87,0,0,1,4.13-.35,10.41,10.41,0,0,1,3.89.69,8.31,8.31,0,0,1,3,1.95,8.66,8.66,0,0,1,1.9,3.08A12,12,0,0,1,161.09,37.05Zm-3.5,0A7.17,7.17,0,0,0,156,32a5.58,5.58,0,0,0-4.33-1.77,18.1,18.1,0,0,0-2.36.11,8.46,8.46,0,0,0-1.35.25V42.43a6.81,6.81,0,0,0,1.76,1,6.7,6.7,0,0,0,2.53.47,5.36,5.36,0,0,0,2.47-.52,4.46,4.46,0,0,0,1.68-1.45,6.24,6.24,0,0,0,.94-2.16A12.06,12.06,0,0,0,157.59,37.05Z" style="fill:#464646"/><path d="M171.44,46.76c-2.07,0-3.53-.5-4.4-1.34a5.25,5.25,0,0,1-1.3-3.93V19l3.36-.58V41a5.77,5.77,0,0,0,.14,1.37,1.83,1.83,0,0,0,.47.86,2,2,0,0,0,.87.49,8.36,8.36,0,0,0,1.33.27Z" style="fill:#464646"/><path d="M174.62,37.05a12,12,0,0,1,.72-4.35,9.16,9.16,0,0,1,1.91-3.09A7.92,7.92,0,0,1,180,27.77a8.71,8.71,0,0,1,3.17-.61A7.24,7.24,0,0,1,189,29.52q2,2.37,2,7.2v.56a6.05,6.05,0,0,1,0,.63H178.12a6.88,6.88,0,0,0,1.69,4.44,6.22,6.22,0,0,0,4.62,1.52,12,12,0,0,0,3-.31,10.5,10.5,0,0,0,1.82-.59l.47,2.81a9.67,9.67,0,0,1-2.14.69,15.41,15.41,0,0,1-3.49.36,11.12,11.12,0,0,1-4.24-.74,7.84,7.84,0,0,1-2.94-2A8.25,8.25,0,0,1,175.18,41,12.79,12.79,0,0,1,174.62,37.05Zm12.88-1.84a5.57,5.57,0,0,0-1.14-3.74A3.91,3.91,0,0,0,183.14,30a4.41,4.41,0,0,0-2,.45,4.71,4.71,0,0,0-1.5,1.18,5.35,5.35,0,0,0-1,1.66,7.92,7.92,0,0,0-.45,1.91Z" style="fill:#464646"/><path d="M215.94,44.52a9.16,9.16,0,0,1-1.68.74,8.55,8.55,0,0,1-2.91.45,9.33,9.33,0,0,1-3.19-.54,6.93,6.93,0,0,1-2.62-1.68,8.15,8.15,0,0,1-1.76-2.83,11.15,11.15,0,0,1-.65-4,11.14,11.14,0,0,1,.61-3.78,8.26,8.26,0,0,1,1.79-3,8.17,8.17,0,0,1,2.86-1.95,9.9,9.9,0,0,1,3.83-.71,21.47,21.47,0,0,1,4.1.35c1.16.22,2.14.44,2.94.63V45q0,4.34-2.24,6.28t-6.78,2a18.63,18.63,0,0,1-3.34-.29,19.39,19.39,0,0,1-2.73-.68l.62-2.93a15.29,15.29,0,0,0,2.47.71,15.1,15.1,0,0,0,3.05.3,6.33,6.33,0,0,0,4.31-1.19,4.87,4.87,0,0,0,1.32-3.79Zm0-13.93a10,10,0,0,0-1.35-.27,15.44,15.44,0,0,0-2.29-.13A5.09,5.09,0,0,0,208.09,32a7.09,7.09,0,0,0-1.46,4.69,8.19,8.19,0,0,0,.41,2.78,5.48,5.48,0,0,0,1.12,1.91,4.34,4.34,0,0,0,1.62,1.12,5.21,5.21,0,0,0,1.9.36,7.36,7.36,0,0,0,2.45-.38,5.83,5.83,0,0,0,1.77-.88Z" style="fill:#464646"/><path d="M231.09,27.16a9.9,9.9,0,0,1,3.41.52A5.33,5.33,0,0,1,238,31.44a11,11,0,0,1,.36,2.9V46.07l-1.21.2c-.52.08-1.1.16-1.75.23s-1.35.14-2.11.2-1.51.09-2.26.09a12.74,12.74,0,0,1-2.92-.32,6.59,6.59,0,0,1-2.31-1,4.7,4.7,0,0,1-1.51-1.86,6.53,6.53,0,0,1-.54-2.78,5.38,5.38,0,0,1,.63-2.67,5,5,0,0,1,1.71-1.8,7.66,7.66,0,0,1,2.53-1,13.53,13.53,0,0,1,3-.33,9.79,9.79,0,0,1,1.05.06,10,10,0,0,1,1,.14l.85.16.51.11v-.94a7.56,7.56,0,0,0-.18-1.64,3.78,3.78,0,0,0-.65-1.44,3.33,3.33,0,0,0-1.28-1,5,5,0,0,0-2.12-.38,16.47,16.47,0,0,0-2.9.23,10.33,10.33,0,0,0-1.86.49l-.4-2.78a10.66,10.66,0,0,1,2.17-.56A18.69,18.69,0,0,1,231.09,27.16ZM231.38,44c.8,0,1.5,0,2.11-.06a8.27,8.27,0,0,0,1.54-.2V38.13a4.59,4.59,0,0,0-1.18-.31,13.6,13.6,0,0,0-2-.12,11.47,11.47,0,0,0-1.61.11,4.89,4.89,0,0,0-1.55.45,3.27,3.27,0,0,0-1.17.94,2.41,2.41,0,0,0-.47,1.57,2.68,2.68,0,0,0,1.15,2.5A6,6,0,0,0,231.38,44Z" style="fill:#464646"/><path d="M250.8,27.23a9.63,9.63,0,0,1,1,.06c.37,0,.74.08,1.1.14l1,.18c.3.06.52.12.67.16L254,30.7a11.16,11.16,0,0,0-1.32-.35,11.75,11.75,0,0,0-2.36-.19,9,9,0,0,0-1.86.19l-1.21.28V46.4h-3.35v-18a23.64,23.64,0,0,1,3-.81A19.11,19.11,0,0,1,250.8,27.23Z" style="fill:#464646"/><path d="M269.92,19l3.36-.58V45.85a29.71,29.71,0,0,1-3,.65,23.35,23.35,0,0,1-4.15.33,10.43,10.43,0,0,1-3.9-.69,8.22,8.22,0,0,1-3-2,8.51,8.51,0,0,1-1.89-3.08,11.75,11.75,0,0,1-.67-4.1,13.18,13.18,0,0,1,.56-4,8.92,8.92,0,0,1,1.64-3.1,7.44,7.44,0,0,1,2.65-2,8.56,8.56,0,0,1,3.59-.72,8.66,8.66,0,0,1,2.87.43,9.44,9.44,0,0,1,1.86.83Zm0,12.63a6.77,6.77,0,0,0-1.77-1,6.5,6.5,0,0,0-2.52-.47,5.41,5.41,0,0,0-2.48.52,4.57,4.57,0,0,0-1.67,1.44,6,6,0,0,0-.94,2.19,11.64,11.64,0,0,0-.29,2.7,7.28,7.28,0,0,0,1.62,5.07,5.59,5.59,0,0,0,4.33,1.79,16.18,16.18,0,0,0,2.29-.13,9.68,9.68,0,0,0,1.43-.27Z" style="fill:#464646"/><path d="M278,37.05a11.8,11.8,0,0,1,.73-4.35,9,9,0,0,1,1.91-3.09,7.88,7.88,0,0,1,2.74-1.84,8.72,8.72,0,0,1,3.18-.61,7.25,7.25,0,0,1,5.81,2.36c1.34,1.58,2,4,2,7.2v.56a5.9,5.9,0,0,1,0,.63H281.5a6.88,6.88,0,0,0,1.7,4.44,6.22,6.22,0,0,0,4.62,1.52,12.06,12.06,0,0,0,3-.31,10.8,10.8,0,0,0,1.82-.59l.47,2.81a9.8,9.8,0,0,1-2.15.69,15.26,15.26,0,0,1-3.48.36,11.09,11.09,0,0,1-4.24-.74,7.84,7.84,0,0,1-2.94-2A8.41,8.41,0,0,1,278.56,41,13.1,13.1,0,0,1,278,37.05Zm12.89-1.84a5.68,5.68,0,0,0-1.14-3.74A3.92,3.92,0,0,0,286.52,30a4.44,4.44,0,0,0-2,.45,4.71,4.71,0,0,0-1.5,1.18,5.33,5.33,0,0,0-1,1.66,7.92,7.92,0,0,0-.45,1.91Z" style="fill:#464646"/><path d="M299.22,28.17c.77-.19,1.79-.4,3.07-.61a26.05,26.05,0,0,1,4.4-.33,9.56,9.56,0,0,1,3.72.63,5.94,5.94,0,0,1,2.36,1.77A6.86,6.86,0,0,1,314,32.36a15.82,15.82,0,0,1,.36,3.5V46.4H311V36.58a16.62,16.62,0,0,0-.23-3,5,5,0,0,0-.78-2,3.06,3.06,0,0,0-1.44-1.11,6.56,6.56,0,0,0-2.24-.34c-.36,0-.73,0-1.12,0s-.75.05-1.1.09-.66.08-.94.13l-.59.1V46.4h-3.36Z" style="fill:#464646"/></svg>